<svg width="104" height="92" viewBox="0 0 104 92" fill="none" xmlns="http://www.w3.org/2000/svg">
<path d="M7.65977 19.13H22.9723C26.7812 19.13 29.8629 16.0484 29.8629 12.2394C29.8629 8.43038 26.7812 5.34874 22.9723 5.34874C22.5895 5.34874 22.2066 5.38702 21.8238 5.44445C20.618 1.84601 16.7324 -0.087194 13.134 1.09952C11.0859 1.78859 9.47812 3.3964 8.78906 5.44445C8.40625 5.38702 8.02344 5.34874 7.64062 5.34874C3.83164 5.34874 0.75 8.43038 0.75 12.2394C0.75 16.0484 3.85078 19.13 7.65977 19.13Z" stroke="#F5F6F6" stroke-width="1.5" stroke-miterlimit="10" stroke-linecap="round" stroke-linejoin="round"/>
<path d="M15.9102 60.4163C15.9102 77.4323 29.7105 91.2135 46.7074 91.2135C63.7043 91.2135 77.5047 77.4131 77.5047 60.4163H15.9102Z" stroke="#F5F6F6" stroke-width="1.5" stroke-miterlimit="10" stroke-linecap="round" stroke-linejoin="round"/>
<path d="M34.5714 60.9338L31.6621 66.5038C31.241 67.3268 31.5472 68.3413 32.3511 68.8006L34.7437 70.1213C35.8539 70.7338 36.0261 72.2651 35.0691 73.0881L28.657 78.7729C28.2933 79.0983 28.1402 79.5768 28.2359 80.0553L29.4418 85.9124" stroke="#F5F6F6" stroke-width="1.5" stroke-miterlimit="10" stroke-linecap="round" stroke-linejoin="round"/>
<path d="M40.4863 90.1227L46.1137 80.0356C46.4965 79.3657 47.2047 78.9446 47.9703 78.9446H53.7891C54.7652 78.9446 55.6266 78.2747 55.8562 77.3176L57.2535 71.3458C57.5023 70.2739 58.5359 69.5657 59.6461 69.7379L74.7863 72.0731" stroke="#F5F6F6" stroke-width="1.5" stroke-miterlimit="10" stroke-linecap="round" stroke-linejoin="round"/>
<path d="M36.1797 31.2273C36.1797 24.1644 42.3621 15.264 45.7883 10.8808C46.2477 10.2875 47.1473 10.2875 47.6066 10.8808C51.0328 15.264 57.2152 24.1644 57.2152 31.2273C57.2152 39.6109 53.3488 46.8078 48.4488 48.2433H44.9461C40.0461 46.8078 36.1797 39.6109 36.1797 31.2273Z" stroke="#F5F6F6" stroke-width="1.5" stroke-miterlimit="10" stroke-linecap="round" stroke-linejoin="round"/>
<path d="M62.2871 41.4094C62.2871 36.452 66.632 30.2122 69.0438 27.1305C69.3691 26.7094 70.0008 26.7094 70.3262 27.1305C72.7379 30.2122 77.0828 36.452 77.0828 41.4094C77.0828 47.3047 74.3648 52.3579 70.9195 53.3532H68.4504C64.9859 52.3579 62.2871 47.3047 62.2871 41.4094Z" stroke="#F5F6F6" stroke-width="1.5" stroke-miterlimit="10" stroke-linecap="round" stroke-linejoin="round"/>
<path d="M16.3496 41.4094C16.3496 36.452 20.6945 30.2122 23.1062 27.1305C23.4316 26.7094 24.0633 26.7094 24.3887 27.1305C26.8004 30.2122 31.1453 36.452 31.1453 41.4094C31.1453 47.3047 28.4273 52.3579 24.982 53.3532H22.5129C19.0484 52.3579 16.3496 47.3047 16.3496 41.4094Z" stroke="#F5F6F6" stroke-width="1.5" stroke-miterlimit="10" stroke-linecap="round" stroke-linejoin="round"/>
<path d="M23.7383 43.6301V59.9954" stroke="#F5F6F6" stroke-width="1.5" stroke-miterlimit="10" stroke-linecap="round" stroke-linejoin="round"/>
<path d="M46.707 43.6301V59.9954" stroke="#F5F6F6" stroke-width="1.5" stroke-miterlimit="10" stroke-linecap="round" stroke-linejoin="round"/>
<path d="M69.6758 43.6301V59.9954" stroke="#F5F6F6" stroke-width="1.5" stroke-miterlimit="10" stroke-linecap="round" stroke-linejoin="round"/>
<path d="M90.0033 17.919C92.5827 17.919 94.6736 15.828 94.6736 13.2487C94.6736 10.6693 92.5827 8.57837 90.0033 8.57837C87.424 8.57837 85.333 10.6693 85.333 13.2487C85.333 15.828 87.424 17.919 90.0033 17.919Z" stroke="#F5F6F6" stroke-width="1.5" stroke-miterlimit="10" stroke-linecap="round" stroke-linejoin="round"/>
<path d="M79.3041 13.249H77.5049" stroke="#F5F6F6" stroke-width="1.5" stroke-miterlimit="10" stroke-linecap="round" stroke-linejoin="round"/>
<path d="M102.502 13.249H100.722" stroke="#F5F6F6" stroke-width="1.5" stroke-miterlimit="10" stroke-linecap="round" stroke-linejoin="round"/>
<path d="M82.4244 20.8284L81.1611 22.0917" stroke="#F5F6F6" stroke-width="1.5" stroke-miterlimit="10" stroke-linecap="round" stroke-linejoin="round"/>
<path d="M98.8463 4.40649L97.583 5.68892" stroke="#F5F6F6" stroke-width="1.5" stroke-miterlimit="10" stroke-linecap="round" stroke-linejoin="round"/>
<path d="M90.0037 0.750244V2.54946" stroke="#F5F6F6" stroke-width="1.5" stroke-miterlimit="10" stroke-linecap="round" stroke-linejoin="round"/>
<path d="M97.583 20.8284L98.8463 22.0917" stroke="#F5F6F6" stroke-width="1.5" stroke-miterlimit="10" stroke-linecap="round" stroke-linejoin="round"/>
<path d="M81.1611 4.40649L82.4244 5.68892" stroke="#F5F6F6" stroke-width="1.5" stroke-miterlimit="10" stroke-linecap="round" stroke-linejoin="round"/>
<path d="M90.0037 23.9678V25.767" stroke="#F5F6F6" stroke-width="1.5" stroke-miterlimit="10" stroke-linecap="round" stroke-linejoin="round"/>
</svg>
