<svg width="192" height="49" viewBox="0 0 192 49" fill="none" xmlns="http://www.w3.org/2000/svg">
<path d="M100.082 41.3959H98.9462L97.9366 43.5414H97.1794V41.3959H96.1697V46.6966H97.1794V44.5511H97.9366L99.0725 46.6966H100.208L98.6938 44.0463L100.082 41.3959Z" fill="white"/>
<path d="M100.966 41.6483C100.713 41.9008 100.587 42.1531 100.587 42.5318V45.5607C100.587 46.0655 100.713 46.318 100.966 46.4442C101.218 46.5704 101.47 46.6966 101.849 46.6966C102.732 46.6966 103.49 46.6966 104.121 46.5704V45.8131H102.101C101.849 45.8131 101.597 45.687 101.597 45.3083V44.5511H103.742V43.6676H101.597V42.9104C101.597 42.658 101.723 42.5318 102.101 42.5318H104.121V41.6483C103.363 41.6483 102.606 41.5221 101.849 41.5221C101.47 41.3959 101.218 41.5221 100.966 41.6483Z" fill="white"/>
<path d="M104.752 42.4055H107.15L104.752 45.8131V46.6966H108.412V45.8131H106.14L108.412 42.2794V41.3959H104.752V42.4055Z" fill="white"/>
<path d="M110.557 41.3959L108.917 46.6966H110.052L110.431 45.5607H112.198L112.577 46.6966H113.712L112.072 41.3959H110.557ZM110.557 44.6773L111.188 42.2794L111.819 44.6773H110.557Z" fill="white"/>
<path d="M116.489 41.3959H114.217V46.6966H116.489C117.12 46.6966 117.625 46.4442 117.877 46.0656C118.13 45.687 118.382 44.9297 118.382 44.0463C118.382 43.1628 118.256 42.5318 118.003 42.0269C117.625 41.6483 117.12 41.3959 116.489 41.3959ZM117.12 45.3083C116.994 45.5607 116.741 45.6869 116.489 45.6869H115.353V42.2794H116.489C116.741 42.2794 116.868 42.2793 116.994 42.4055C117.12 42.5318 117.246 42.658 117.246 42.9104C117.372 43.1628 117.372 43.5414 117.372 43.92C117.246 44.6773 117.246 45.0559 117.12 45.3083Z" fill="white"/>
<path d="M124.44 42.2794H122.926C122.926 42.2794 122.799 42.2793 122.799 42.4055V43.1628C122.799 43.1628 122.799 43.289 122.926 43.289H124.061C124.692 43.289 124.945 43.5414 124.945 44.0462V44.6773C124.945 44.8035 124.945 44.9297 124.945 45.0559C124.945 45.1821 124.945 45.1821 124.819 45.3083C124.819 45.3083 124.692 45.4345 124.566 45.4345C124.44 45.4345 124.314 45.4345 124.188 45.4345H122.547C122.547 45.4345 122.421 45.4345 122.421 45.5607V46.318C122.421 46.318 122.421 46.4442 122.547 46.4442H124.692C124.945 46.4442 125.071 46.4442 125.324 46.318C125.45 46.318 125.576 46.1918 125.702 46.0656C125.828 45.9394 125.955 45.8131 125.955 45.5607C125.955 45.3083 126.081 45.0559 126.081 44.8035V44.0462C126.081 43.5414 125.955 43.0366 125.702 42.7842C125.324 42.4056 124.945 42.2794 124.44 42.2794Z" fill="white"/>
<path d="M127.09 40.0076L126.964 46.0655C126.964 46.0655 126.964 46.1917 127.09 46.1917H127.974C127.974 46.1917 128.1 46.1918 128.1 46.0655V40.0076C128.1 40.0076 128.1 39.8814 127.974 39.8814H127.09V40.0076Z" fill="white"/>
<path d="M129.741 40.6387V41.3959C129.741 41.3959 129.741 41.5221 129.867 41.5221H130.75C130.75 41.5221 130.877 41.5221 130.877 41.3959V40.6387C130.877 40.6387 130.877 40.5125 130.75 40.5125L129.741 40.6387Z" fill="white"/>
<path d="M136.682 47.0752C136.556 47.0752 136.556 47.0752 136.682 47.0752L136.556 47.9587C136.556 47.9587 136.556 48.0848 136.682 48.0848H137.439C137.439 48.0848 137.566 48.0849 137.566 47.9587V47.0752C137.566 47.0752 137.566 46.949 137.439 46.949H136.682V47.0752Z" fill="white"/>
<path d="M135.42 47.0752L135.294 47.9587C135.294 47.9587 135.294 48.0848 135.42 48.0848H136.177C136.177 48.0848 136.303 48.0849 136.303 47.9587V47.0752C136.303 47.0752 136.303 46.949 136.177 46.949H135.42V47.0752Z" fill="white"/>
<path d="M143.497 42.7842C143.371 42.658 143.119 42.5318 142.866 42.5318C142.614 42.5318 142.361 42.5318 141.983 42.4056L143.497 40.6387V40.5124L142.866 40.0076H142.74L140.721 42.2794C140.721 42.2794 140.721 42.4056 140.594 42.4056V42.5318V43.1628C140.594 43.1628 140.595 43.289 140.721 43.289H142.235C142.614 43.289 142.74 43.4152 142.992 43.5414C143.119 43.6677 143.245 43.9201 143.245 44.1725V44.6773C143.245 44.8035 143.245 44.9297 143.245 45.0559C143.245 45.1821 143.245 45.1821 143.119 45.3083C143.119 45.3083 142.992 45.4345 142.866 45.4345C142.74 45.4345 142.614 45.4345 142.488 45.4345H140.216H139.08H137.944H137.818C137.566 45.4345 137.439 45.4345 137.313 45.3083C137.187 45.1821 137.061 45.0559 137.061 44.9297V42.658C137.061 42.658 137.061 42.5318 136.935 42.5318H136.177H136.051C136.051 42.5318 136.051 42.5318 136.051 42.658V44.5511C136.051 44.6773 136.051 44.8035 136.051 44.9297C136.051 45.0559 136.051 45.1821 136.051 45.1821C136.051 45.3083 135.925 45.3083 135.925 45.3083C135.925 45.3083 135.799 45.3083 135.672 45.3083H135.041H133.906H132.77H131.634H131.508C131.255 45.3083 131.129 45.3083 131.003 45.1821C130.877 45.0559 130.75 44.9297 130.75 44.8035V42.5318C130.75 42.5318 130.75 42.4056 130.624 42.4056H129.741C129.741 42.4056 129.614 42.4056 129.614 42.5318V45.8132C129.614 46.0656 129.614 46.1918 129.614 46.4442C129.614 46.5704 129.614 46.6966 129.488 46.8228C129.488 46.949 129.362 47.0752 129.236 47.0752C129.11 47.0752 128.983 47.2014 128.857 47.2014H128.605C128.605 47.2014 128.479 47.2014 128.479 47.3277V48.0849C128.479 48.0849 128.479 48.2111 128.605 48.2111H128.983C129.236 48.2111 129.488 48.2111 129.741 48.0849C129.993 47.9587 130.119 47.8325 130.246 47.7063C130.372 47.5801 130.498 47.3276 130.498 47.0752C130.498 46.8228 130.624 46.5704 130.624 46.1918V46.0656C130.75 46.1918 130.877 46.318 131.003 46.318C131.129 46.318 131.381 46.318 131.508 46.318H132.643H133.779H134.915H135.799C136.051 46.318 136.303 46.318 136.43 46.1918C136.556 46.0656 136.682 45.9394 136.808 45.8132C136.934 46.0656 137.061 46.1918 137.187 46.1918C137.313 46.1918 137.566 46.318 137.818 46.318H138.954H140.09H142.74C142.992 46.318 143.119 46.318 143.371 46.1918C143.497 46.1918 143.623 46.0656 143.75 45.9394C143.876 45.8132 143.876 45.687 144.002 45.4345C144.002 45.1821 144.128 44.9297 144.128 44.6773V44.1725C144.128 43.7939 144.128 43.5414 144.002 43.289C143.876 43.0366 143.75 42.9104 143.497 42.7842Z" fill="white"/>
<path d="M60.0745 23.7269L57.298 32.6876H59.1911L59.6959 30.7945H62.7249L63.3559 32.6876H65.249L62.4725 23.7269H60.0745ZM60.0745 29.1538L61.2104 25.2414L62.3462 29.1538H60.0745Z" fill="white"/>
<path d="M71.0545 28.0179C71.4331 27.8917 71.8118 27.6393 71.938 27.3869C72.1904 27.0083 72.3166 26.6296 72.3166 26.1248C72.3166 24.6103 71.4331 23.7269 69.7924 23.7269H66.2587V32.6876H69.9187C70.8021 32.6876 71.4331 32.4352 71.938 32.0566C72.4428 31.6779 72.569 31.0469 72.569 30.1635C72.569 29.5324 72.4428 29.0276 72.0642 28.649C71.8117 28.3965 71.4331 28.1441 71.0545 28.0179ZM67.8993 25.3676H69.6662C69.9186 25.3676 70.1711 25.4938 70.2973 25.62C70.4235 25.7462 70.5497 25.9986 70.5497 26.3773C70.5497 26.7559 70.4235 27.0083 70.2973 27.1345C70.1711 27.3869 69.9186 27.3869 69.6662 27.3869H67.8993V25.3676ZM69.7924 31.0469H67.8993V28.7752H69.7924C70.0449 28.7752 70.2973 28.9014 70.5497 29.0276C70.8021 29.28 70.8021 29.5324 70.8021 29.7848C70.8021 30.6683 70.4235 31.0469 69.7924 31.0469Z" fill="white"/>
<path d="M78.8793 29.7848C78.8793 30.2896 78.7531 30.6683 78.5007 30.7945C78.2483 31.0469 77.7434 31.1731 77.2386 31.1731C76.7338 31.1731 76.229 31.0469 75.9765 30.7945C75.7241 30.5421 75.5979 30.2896 75.5979 29.7848V23.7269H73.8311V29.7848C73.8311 30.9207 74.0834 31.6779 74.7145 32.0566C75.3455 32.4352 76.229 32.6876 77.3648 32.6876C78.5007 32.6876 79.3842 32.4352 80.0152 32.0566C80.6462 31.6779 80.8986 30.9207 80.8986 29.7848V23.7269H79.1317V29.7848H78.8793Z" fill="white"/>
<path d="M88.9759 23.7269H85.1897V32.6876H88.9759C89.9856 32.6876 90.869 32.309 91.3738 31.5517C91.8787 30.7945 92.1311 29.6586 92.1311 28.1441C92.1311 26.7559 91.8787 25.62 91.3738 24.8628C90.9952 24.1055 90.1118 23.7269 88.9759 23.7269ZM89.9855 30.4158C89.7331 30.9207 89.3545 31.1731 88.8497 31.1731H87.0828V25.3676H88.8497C89.2283 25.3676 89.4807 25.4938 89.7331 25.62C89.9855 25.7462 90.1118 26.1248 90.238 26.5035C90.3642 26.8821 90.3641 27.5131 90.3641 28.2704C90.3641 29.1538 90.238 29.911 89.9855 30.4158Z" fill="white"/>
<path d="M98.5676 27.3869H95.1601V23.7269H93.3932V32.6876H95.1601V29.0276H98.5676V32.6876H100.461V23.7269H98.5676V27.3869Z" fill="white"/>
<path d="M103.237 32.6876L103.742 30.7945H106.771L107.402 32.6876H109.295L106.519 23.7269H104.247L101.47 32.6876H103.237ZM105.383 25.2414L106.519 29.1538H104.247L105.383 25.2414Z" fill="white"/>
<path d="M116.741 30.1635C116.741 29.5325 116.615 29.0277 116.237 28.649C115.984 28.2704 115.605 28.018 115.101 27.8918C115.479 27.7656 115.858 27.5132 115.984 27.2608C116.237 26.8821 116.363 26.5035 116.363 25.9987C116.363 24.4842 115.479 23.6008 113.839 23.6008H110.305V32.5615H113.965C114.848 32.5615 115.479 32.3091 115.984 31.9304C116.489 31.8042 116.741 31.1732 116.741 30.1635ZM112.198 25.3677H113.965C114.217 25.3677 114.47 25.4939 114.596 25.6201C114.722 25.7463 114.848 25.9987 114.848 26.3773C114.848 26.756 114.722 27.0084 114.596 27.1346C114.47 27.387 114.217 27.387 113.965 27.387H112.198V25.3677ZM113.965 31.047H112.072V28.7753H113.965C114.217 28.7753 114.47 28.9015 114.722 29.0277C114.974 29.2801 114.974 29.5325 114.974 29.7849C114.974 30.6683 114.722 31.047 113.965 31.047Z" fill="white"/>
<path d="M119.644 23.7269H117.877V32.6876H119.644V23.7269Z" fill="white"/>
<path d="M129.741 27.7655L126.207 27.6393V26.1248C126.207 25.8724 126.333 25.7462 126.459 25.62C126.586 25.4938 126.838 25.3676 126.964 25.3676H130.372V23.8531C129.362 23.7269 128.1 23.7269 126.459 23.7269C125.955 23.7269 125.45 23.8531 124.945 24.2317C124.566 24.6103 124.314 25.1152 124.314 25.7462V32.6876H126.081V29.28L129.615 29.1538V27.7655H129.741Z" fill="white"/>
<path d="M131.634 25.3677C131.381 25.9987 131.255 27.0084 131.255 28.2704C131.255 29.5325 131.381 30.5421 131.634 31.1732C131.886 31.8042 132.265 32.3091 132.77 32.5615C133.275 32.8139 134.032 32.9401 134.915 32.9401C135.799 32.9401 136.556 32.8139 137.061 32.5615C137.566 32.3091 137.944 31.9304 138.197 31.1732C138.449 30.5421 138.575 29.5325 138.575 28.2704C138.575 27.0084 138.449 25.9987 138.197 25.3677C137.944 24.7366 137.566 24.2318 137.061 23.9794C136.556 23.727 135.799 23.6008 134.915 23.6008C134.032 23.6008 133.401 23.727 132.77 23.9794C132.265 24.2318 131.886 24.7366 131.634 25.3677ZM133.148 26.2511C133.275 25.8725 133.401 25.4939 133.779 25.3677C134.032 25.2415 134.41 25.1153 134.915 25.1153C135.42 25.1153 135.799 25.2415 136.051 25.3677C136.304 25.4939 136.556 25.7463 136.556 26.2511C136.682 26.6297 136.682 27.2608 136.682 28.1442C136.682 29.0277 136.682 29.5325 136.556 30.0373C136.43 30.4159 136.304 30.7946 136.051 30.9208C135.799 31.047 135.42 31.1732 134.915 31.1732C134.41 31.1732 134.032 31.047 133.779 30.9208C133.527 30.7946 133.275 30.5422 133.275 30.0373C133.148 29.6587 133.148 29.0277 133.148 28.1442C133.022 27.387 133.022 26.7559 133.148 26.2511Z" fill="white"/>
<path d="M145.517 23.9794C145.012 23.727 144.254 23.6008 143.371 23.6008C142.488 23.6008 141.857 23.727 141.225 23.9794C140.721 24.2318 140.342 24.7366 140.09 25.3677C139.837 25.9987 139.711 27.0084 139.711 28.2704C139.711 29.5325 139.837 30.5421 140.09 31.1732C140.342 31.8042 140.721 32.3091 141.225 32.5615C141.73 32.8139 142.488 32.9401 143.371 32.9401C144.254 32.9401 145.012 32.8139 145.517 32.5615C146.021 32.3091 146.4 31.9304 146.652 31.1732C146.905 30.5421 147.031 29.5325 147.031 28.2704C147.031 27.0084 146.905 25.9987 146.652 25.3677C146.4 24.7366 146.021 24.2318 145.517 23.9794ZM145.138 30.0373C145.012 30.4159 144.885 30.7946 144.633 30.9208C144.381 31.047 144.002 31.1732 143.497 31.1732C142.992 31.1732 142.614 31.047 142.361 30.9208C142.109 30.7946 141.857 30.5422 141.857 30.0373C141.73 29.6587 141.73 29.0277 141.73 28.1442C141.73 27.2608 141.73 26.6297 141.857 26.2511C141.983 25.8725 142.109 25.4939 142.488 25.3677C142.74 25.2415 143.119 25.1153 143.623 25.1153C144.128 25.1153 144.507 25.2415 144.759 25.3677C145.012 25.4939 145.264 25.7463 145.264 26.2511C145.39 26.6297 145.39 27.2608 145.39 28.1442C145.264 29.0277 145.138 29.6587 145.138 30.0373Z" fill="white"/>
<path d="M152.079 23.7269H148.293V32.6876H152.079C153.089 32.6876 153.972 32.309 154.477 31.5517C154.982 30.7945 155.235 29.6586 155.235 28.1441C155.235 26.7559 154.982 25.62 154.477 24.8628C154.099 24.1055 153.341 23.7269 152.079 23.7269ZM153.089 30.4158C152.837 30.9207 152.458 31.1731 151.953 31.1731H150.186V25.3676H151.953C152.332 25.3676 152.584 25.4938 152.837 25.62C153.089 25.7462 153.215 26.1248 153.341 26.5035C153.468 26.8821 153.468 27.5131 153.468 28.2704C153.468 29.1538 153.341 29.911 153.089 30.4158Z" fill="white"/>
<path d="M164.952 27.3869H161.545V23.7269H159.778V32.6876H161.545V29.0276H164.952V32.6876H166.719V23.7269H164.952V27.3869Z" fill="white"/>
<path d="M173.408 29.7848C173.408 30.2896 173.282 30.6683 173.03 30.7945C172.777 31.0469 172.272 31.1731 171.768 31.1731C171.263 31.1731 170.758 31.0469 170.506 30.7945C170.253 30.5421 170.127 30.2896 170.127 29.7848V23.7269H168.36V29.7848C168.36 30.9207 168.612 31.6779 169.243 32.0566C169.874 32.4352 170.758 32.6876 171.894 32.6876C173.03 32.6876 173.913 32.4352 174.544 32.0566C175.175 31.6779 175.428 30.9207 175.428 29.7848V23.7269H173.661V29.7848H173.408Z" fill="white"/>
<path d="M182.621 28.7752C182.369 28.3966 181.99 28.1441 181.486 28.0179C181.864 27.8917 182.243 27.6393 182.369 27.3869C182.621 27.0083 182.748 26.6296 182.748 26.1248C182.748 24.6103 181.864 23.7269 180.223 23.7269H176.69V32.6876H180.35C181.233 32.6876 181.864 32.4352 182.369 32.0566C182.874 31.6779 183 31.0469 183 30.1635C183 29.6586 182.874 29.1538 182.621 28.7752ZM178.457 25.3676H180.223C180.476 25.3676 180.728 25.4938 180.855 25.62C180.981 25.7462 181.107 25.9986 181.107 26.3773C181.107 26.7559 180.981 27.0083 180.855 27.1345C180.728 27.3869 180.476 27.3869 180.223 27.3869H178.457V25.3676ZM180.223 31.0469H178.33V28.7752H180.223C180.476 28.7752 180.728 28.9014 180.981 29.0276C181.233 29.28 181.233 29.5324 181.233 29.7848C181.359 30.6683 180.981 31.0469 180.223 31.0469Z" fill="white"/>
<path d="M58.1814 12.8731C58.4338 13.1255 58.6862 13.2517 59.0649 13.378C59.4435 13.5042 59.8221 13.5042 60.2007 13.5042C60.5793 13.5042 60.8318 13.5042 61.0842 13.378C61.3366 13.2517 61.589 13.1256 61.8414 12.9993C61.9676 13.5042 62.0938 13.7566 62.3462 13.8828C62.5987 14.009 62.9773 14.1352 63.4821 14.1352H64.7442C64.7442 14.1352 64.7442 14.1352 64.8704 14.1352C64.8704 14.1352 64.8704 14.1352 64.9966 14.1352H66.6373C67.2683 14.1352 67.7731 14.009 68.0256 13.6304C68.278 13.378 68.4042 12.8731 68.4042 12.1159V7.95107C68.4042 7.82486 68.4042 7.82486 68.278 7.82486H66.8897C66.7635 7.82486 66.7635 7.82486 66.7635 7.95107V11.8635C66.7635 12.1159 66.7635 12.3683 66.6373 12.4945C66.5111 12.6207 66.3849 12.6207 66.1325 12.6207H65.1228C65.1228 12.6207 65.1228 12.6207 64.9966 12.6207C64.9966 12.6207 64.9966 12.6207 64.8704 12.6207H64.2394C63.9869 12.6207 63.7345 12.6207 63.7345 12.4945C63.6083 12.3683 63.6083 12.1159 63.6083 11.8635V6.94143C63.6083 6.81522 63.6083 6.81522 63.4821 6.81522H62.0938C61.9676 6.81522 61.9676 6.81522 61.9676 6.94143V7.57247H60.3269C59.9483 7.57247 59.5697 7.57243 59.1911 7.69864C58.8125 7.82485 58.56 7.95109 58.1814 8.2035C57.929 8.45591 57.6766 8.70831 57.5504 9.21314C57.4242 9.59176 57.298 10.0966 57.298 10.7276C57.298 11.2325 57.4242 11.7373 57.5504 11.9897C57.6766 12.3683 57.929 12.6207 58.1814 12.8731ZM59.4435 9.46557C59.6959 9.21315 60.0745 9.08692 60.4531 9.08692H61.8414V10.349C61.8414 10.8538 61.7152 11.3586 61.4628 11.6111C61.2104 11.8635 60.8318 11.9897 60.3269 11.9897C59.9483 11.9897 59.5697 11.8635 59.3173 11.6111C59.0649 11.3586 58.9386 10.98 58.9386 10.6014C59.0649 10.0966 59.1911 9.71798 59.4435 9.46557Z" fill="white"/>
<path d="M60.958 5.67941H62.2201C62.3463 5.67941 62.3463 5.6794 62.3463 5.55319V4.16491C62.3463 4.0387 62.3463 4.0387 62.2201 4.0387H60.958C60.8318 4.0387 60.8318 4.0387 60.8318 4.16491V5.55319C60.7056 5.6794 60.8318 5.67941 60.958 5.67941Z" fill="white"/>
<path d="M58.9386 5.67941H60.2007C60.3269 5.67941 60.3269 5.6794 60.3269 5.55319V4.16491C60.3269 4.0387 60.3269 4.0387 60.2007 4.0387H58.9386C58.8124 4.0387 58.8124 4.0387 58.8124 4.16491V5.55319C58.8124 5.6794 58.8124 5.67941 58.9386 5.67941Z" fill="white"/>
<path d="M67.1421 17.038V15.6497C67.1421 15.5235 67.1421 15.5235 67.0159 15.5235H65.7539C65.6277 15.5235 65.6277 15.5235 65.6277 15.6497V17.038C65.6277 17.1642 65.6277 17.1641 65.7539 17.1641H67.0159C67.0159 17.1641 67.1421 17.1642 67.1421 17.038Z" fill="white"/>
<path d="M67.5208 15.6497V17.038C67.5208 17.1642 67.5207 17.1641 67.6469 17.1641H68.909C69.0352 17.1641 69.0352 17.1642 69.0352 17.038V15.6497C69.0352 15.5235 69.0352 15.5235 68.909 15.5235H67.6469C67.5207 15.5235 67.5208 15.5235 67.5208 15.6497Z" fill="white"/>
<path d="M72.1904 6.31036H73.7049C73.8311 6.31036 73.8311 6.31035 73.8311 6.18415V4.79586C73.8311 4.66965 73.8311 4.66965 73.7049 4.66965H72.1904C72.0642 4.66965 72.0642 4.66965 72.0642 4.79586V6.18415C72.0642 6.31035 72.0642 6.31036 72.1904 6.31036Z" fill="white"/>
<path d="M85.0635 12.7469H81.7821C81.6559 12.7469 81.5297 12.6207 81.4035 12.6207C81.2773 12.4945 81.1511 12.3683 81.0248 12.2421C80.8986 12.1159 80.7724 11.8635 80.6462 11.7373C80.52 11.4848 80.52 11.2324 80.52 10.98C80.52 10.4752 80.6462 10.0966 80.8986 9.71794C81.151 9.46553 81.5297 9.21312 82.1607 9.21312C82.7917 9.21312 83.2966 9.46554 83.8014 9.97037C83.9276 10.0966 83.9276 10.0966 84.0538 9.97037L84.9373 9.08691C85.0635 9.08691 85.0635 8.96072 84.9373 8.83452C84.6849 8.4559 84.3062 8.20347 83.8014 7.95105C83.2966 7.69864 82.7918 7.57245 82.0345 7.57245C81.4035 7.57245 80.8986 7.69863 80.52 7.82484C80.1414 8.07725 79.7628 8.20347 79.5104 8.58209C79.258 8.96071 79.0055 9.21311 79.0055 9.59173C78.8793 9.97035 78.8794 10.349 78.8794 10.7276C78.8794 11.2324 79.0055 11.6111 79.1317 11.8635C79.2579 12.2421 79.3841 12.4945 79.6366 12.7469H77.9959H77.7435C77.3648 12.7469 76.9862 12.6207 76.86 12.4945C76.6076 12.3683 76.4814 12.1159 76.4814 11.8635V10.4752C76.4814 9.46554 76.229 8.83449 75.7242 8.32966C75.2194 7.95104 74.5883 7.69862 73.7049 7.69862H71.4331C71.3069 7.69862 71.3069 7.69863 71.3069 7.82484V9.08691C71.3069 9.21312 71.3069 9.21312 71.4331 9.21312H73.3262C73.831 9.21312 74.2097 9.33931 74.4621 9.59173C74.7145 9.84414 74.8407 10.0966 74.8407 10.6014V11.611C74.8407 11.8635 74.8407 11.9897 74.8407 12.1159C74.8407 12.2421 74.7145 12.3683 74.7145 12.4945C74.5883 12.6207 74.4621 12.6207 74.3359 12.7469C74.2097 12.7469 73.9573 12.7469 73.7049 12.7469H70.8021C70.6759 12.7469 70.6759 12.7469 70.6759 12.8731V14.1352C70.6759 14.2614 70.6759 14.2614 70.8021 14.2614H74.2097C74.7145 14.2614 75.0931 14.2614 75.4718 14.1352C75.8504 14.009 76.1028 13.7566 76.229 13.3779C76.3552 13.7566 76.6076 14.009 76.9862 14.1352C77.2387 14.2614 77.6173 14.2614 77.9959 14.2614H85.1897C85.3159 14.2614 85.3159 14.2614 85.3159 14.1352V12.8731C85.1897 12.7469 85.1897 12.7469 85.0635 12.7469Z" fill="white"/>
<path d="M81.2772 6.31036H82.7917C82.9179 6.31036 82.9179 6.31035 82.9179 6.18415V4.79586C82.9179 4.66965 82.9179 4.66965 82.7917 4.66965H81.2772C81.151 4.66965 81.151 4.66965 81.151 4.79586V6.18415C81.0248 6.31035 81.151 6.31036 81.2772 6.31036Z" fill="white"/>
<path d="M88.471 4.92214H91.7524C91.7524 4.92214 91.8786 4.92213 91.8786 4.79593V4.16489C91.8786 4.03868 91.8786 4.03868 91.7524 4.03868H90.2379C90.1117 3.91247 89.9855 3.91249 89.8593 3.66007C89.7331 3.53386 89.7331 3.28146 89.7331 3.15525C89.7331 2.90284 89.8593 2.7766 89.9855 2.65039C90.1117 2.52419 90.3641 2.398 90.4903 2.398C90.6165 2.398 90.7428 2.39801 90.869 2.52422C90.9952 2.65042 91.1214 2.6504 91.2476 2.77661H91.3738L91.7524 2.398V2.27179C91.6262 2.14558 91.5 2.01939 91.2476 1.89318C90.9952 1.76698 90.7427 1.76697 90.4903 1.76697C90.2379 1.76697 89.9855 1.76698 89.7331 1.89318C89.4807 2.01939 89.3545 2.14558 89.2283 2.27179C89.1021 2.39799 88.9759 2.52419 88.9759 2.77661C88.9759 2.90281 88.8497 3.15522 88.8497 3.28143C88.8497 3.40763 88.8497 3.66008 88.9759 3.78629C88.9759 3.91249 89.102 4.03868 89.102 4.16489H88.5972C88.5972 4.16489 88.471 4.1649 88.471 4.29111V4.92214Z" fill="white"/>
<path d="M94.7815 13.5042C94.9077 13.8828 95.1601 14.009 95.5387 14.1352C95.7911 14.2614 96.1698 14.2614 96.5484 14.2614H98.4415H99.8297C100.461 14.2614 100.966 14.1352 101.218 13.7566C101.47 13.5042 101.597 12.9994 101.597 12.2421V3.91246C101.597 3.78625 101.597 3.78629 101.47 3.78629H100.082C99.9559 3.78629 99.9559 3.78625 99.9559 3.91246V11.8635C99.9559 12.1159 99.9559 12.3683 99.8297 12.4946C99.7035 12.6208 99.5773 12.6208 99.3249 12.6208H98.5677H96.6746H96.4222C95.6649 12.6208 95.2863 12.3683 95.1601 11.8635V3.91246C95.1601 3.78625 95.1601 3.78629 95.0339 3.78629H93.6456C93.5194 3.78629 93.5194 3.78625 93.5194 3.91246V11.2325C93.5194 11.4849 93.5194 11.7373 93.5194 11.8635C93.5194 11.9897 93.5194 12.2421 93.3932 12.2421C93.3932 12.3683 93.267 12.3683 93.1408 12.4946C93.0146 12.4946 92.8884 12.6208 92.7622 12.6208H91.1215V6.05799C91.1215 5.93179 91.1215 5.93178 90.9952 5.93178H89.607C89.4808 5.93178 89.4808 5.93179 89.4808 6.05799V12.6208H86.7042C86.578 12.6208 86.578 12.6207 86.578 12.7469V14.009C86.578 14.1352 86.578 14.1352 86.7042 14.1352H93.267C93.7718 14.1352 94.1504 14.1352 94.4028 14.009C94.5291 13.8828 94.6552 13.7566 94.7815 13.5042Z" fill="white"/>
<path d="M110.936 20.067C111.062 20.067 111.062 20.0669 111.062 19.9407V18.5525C111.062 18.4262 111.062 18.4262 110.936 18.4262H109.674C109.548 18.4262 109.548 18.4262 109.548 18.5525V19.9407C109.548 20.0669 109.548 20.067 109.674 20.067H110.936Z" fill="white"/>
<path d="M112.955 20.067C113.081 20.067 113.081 20.0669 113.081 19.9407V18.5525C113.081 18.4262 113.081 18.4262 112.955 18.4262H111.693C111.567 18.4262 111.567 18.4262 111.567 18.5525V19.9407C111.567 20.0669 111.567 20.067 111.693 20.067H112.955Z" fill="white"/>
<path d="M120.401 15.5235H118.887C118.761 15.5235 118.761 15.5235 118.761 15.6497V17.038C118.761 17.1642 118.761 17.1641 118.887 17.1641H120.401C120.528 17.1641 120.528 17.1642 120.528 17.038V15.6497C120.528 15.5235 120.528 15.5235 120.401 15.5235Z" fill="white"/>
<path d="M125.071 14.2614C125.323 14.2614 125.576 14.2614 125.828 14.2614C126.081 14.2614 126.207 14.1352 126.333 14.009C126.459 14.1352 126.712 14.2614 126.964 14.2614H131.003C131.508 14.2614 132.012 14.2614 132.391 14.1352C132.77 14.009 133.148 13.8828 133.401 13.7566C133.653 13.5042 133.779 13.2518 133.905 12.8731C134.032 12.4945 134.032 11.9897 134.032 11.3587C134.032 10.8539 133.906 10.349 133.779 9.84418C133.653 9.33936 133.401 8.96074 133.148 8.70833C132.896 8.32971 132.517 8.2035 132.012 7.95108C131.508 7.82487 131.003 7.69865 130.245 7.69865C129.614 7.69865 128.983 7.82487 128.479 7.95108C127.848 8.07729 127.343 8.3297 126.838 8.58212V4.03866C126.838 3.91245 126.838 3.91245 126.712 3.91245H125.323C125.197 3.91245 125.197 3.91245 125.197 4.03866V10.8538C125.197 11.2324 125.197 11.6111 125.197 11.8635C125.197 12.1159 125.197 12.3683 125.071 12.4945C125.071 12.6207 124.945 12.7469 124.819 12.7469C124.692 12.7469 124.566 12.8731 124.44 12.8731H123.683H121.916H121.663C121.285 12.8731 120.906 12.747 120.78 12.6208C120.528 12.4945 120.401 12.2421 120.401 11.8635V8.0773C120.401 7.95109 120.401 7.95108 120.275 7.95108H118.887C118.761 7.95108 118.761 7.95109 118.761 8.0773V11.3587C118.761 11.6111 118.761 11.8635 118.761 11.9897C118.761 12.1159 118.761 12.3683 118.634 12.4945C118.634 12.6207 118.508 12.7469 118.382 12.7469C118.256 12.7469 118.13 12.8731 118.003 12.8731H117.246C117.246 12.8731 117.246 12.8731 117.12 12.8731H115.605C115.353 12.8731 114.974 12.8731 114.722 12.7469C114.47 12.6207 114.217 12.6207 113.839 12.4945C113.586 12.3683 113.208 12.2421 112.955 12.1159C112.703 11.9897 112.324 11.8635 112.072 11.7373C111.945 11.7373 111.945 11.7373 111.945 11.8635L111.567 13.1256C111.567 13.2518 111.567 13.2518 111.693 13.2518C112.198 13.5042 112.703 13.6304 113.081 13.7566C113.46 13.8828 113.839 14.009 114.091 14.1352C114.343 14.2614 114.47 14.3876 114.596 14.5139C114.722 14.6401 114.722 14.7663 114.722 15.0187C114.722 15.2711 114.596 15.3973 114.343 15.6497C114.091 15.7759 113.712 15.9021 113.081 15.9021H110.052C109.8 15.9021 109.421 15.9021 109.169 15.7759C108.917 15.6497 108.664 15.6497 108.412 15.3973C108.159 15.2711 108.033 15.0187 107.907 14.7662C107.781 14.5138 107.654 14.1352 107.654 13.7566C107.654 13.378 107.781 12.9994 107.907 12.6208C108.033 12.2421 108.159 11.8635 108.412 11.6111C108.412 11.4849 108.412 11.4849 108.412 11.3587L107.15 10.7276C107.023 10.7276 107.023 10.7276 106.897 10.7276C106.771 10.8539 106.645 11.1063 106.519 11.3587C106.392 11.6111 106.266 11.8635 106.266 12.1159C106.266 12.3683 106.14 12.6207 106.014 12.9994C106.014 13.2518 105.888 13.6304 105.888 13.8828C105.888 14.8925 106.266 15.7759 106.897 16.407C107.528 17.038 108.538 17.2904 109.8 17.2904H113.334C113.839 17.2904 114.343 17.2904 114.722 17.1642C115.101 17.038 115.479 16.9118 115.605 16.6593C115.858 16.4069 115.984 16.2807 116.11 16.0283C116.237 15.7759 116.237 15.5235 116.237 15.2711C116.237 15.0187 116.237 14.8924 116.11 14.64C115.984 14.5138 115.984 14.3876 115.984 14.2614H116.994H118.256C118.761 14.2614 119.139 14.2614 119.392 14.1352C119.644 14.009 119.897 13.7566 120.023 13.5042C120.149 13.8828 120.401 14.009 120.78 14.1352C121.032 14.2614 121.411 14.2614 121.663 14.2614H123.557H125.071ZM127.09 12.3683C127.09 12.2421 127.09 12.1159 127.09 11.9897V9.9704C127.469 9.71799 127.974 9.59179 128.605 9.46558C129.11 9.33937 129.741 9.21315 130.245 9.21315C130.624 9.21315 131.003 9.21316 131.255 9.33937C131.508 9.46557 131.76 9.59176 131.886 9.71797C132.012 9.84418 132.139 10.0966 132.265 10.349C132.391 10.6014 132.391 10.8538 132.391 11.2325C132.391 11.6111 132.391 11.8635 132.265 12.1159C132.265 12.3683 132.139 12.4945 132.012 12.6208C131.886 12.747 131.634 12.7469 131.381 12.7469C131.129 12.7469 130.75 12.7469 130.372 12.7469H126.964C127.09 12.6207 127.09 12.4945 127.09 12.3683Z" fill="white"/>
<path d="M129.867 6.31036H131.381C131.508 6.31036 131.508 6.31035 131.508 6.18415V4.79586C131.508 4.66965 131.508 4.66965 131.381 4.66965H129.867C129.741 4.66965 129.741 4.66965 129.741 4.79586V6.18415C129.741 6.31035 129.741 6.31036 129.867 6.31036Z" fill="white"/>
<path d="M147.788 15.5235H146.274C146.148 15.5235 146.148 15.5235 146.148 15.6497V17.038C146.148 17.1642 146.148 17.1641 146.274 17.1641H147.788C147.914 17.1641 147.915 17.1642 147.915 17.038V15.6497C148.041 15.5235 147.914 15.5235 147.788 15.5235Z" fill="white"/>
<path d="M148.041 7.82484H146.652C146.526 7.82484 146.526 7.82485 146.526 7.95105V11.8635C146.526 12.1159 146.526 12.3683 146.4 12.4945C146.274 12.6207 146.148 12.6207 145.895 12.6207H145.138H143.371H142.361V10.8538C142.361 10.2228 142.235 9.71796 142.109 9.33934C141.983 8.96072 141.73 8.58207 141.478 8.32966C141.225 8.07725 140.847 7.82483 140.468 7.69862C140.09 7.57242 139.711 7.57245 139.206 7.57245C138.828 7.57245 138.323 7.69863 137.944 7.82484C137.566 7.95105 137.187 8.20346 136.934 8.45587C136.682 8.70829 136.43 9.0869 136.303 9.59173C136.177 10.0966 136.051 10.6014 136.051 11.2324C136.051 11.8635 136.177 12.3683 136.303 12.7469C136.43 13.1255 136.682 13.5042 136.934 13.7566C137.187 14.009 137.566 14.1352 137.818 14.2614C138.197 14.3876 138.575 14.3876 139.08 14.3876H140.594C140.594 14.7662 140.594 15.0187 140.468 15.1449C140.468 15.3973 140.342 15.5235 140.216 15.6497C140.09 15.7759 139.963 15.9021 139.837 15.9021C139.711 15.9021 139.459 16.0283 139.206 16.0283H137.439C137.313 16.0283 137.313 16.0283 137.313 16.1545V17.4166C137.313 17.5428 137.313 17.5428 137.439 17.5428H139.459C140.342 17.5428 141.099 17.2904 141.604 16.9118C142.109 16.5331 142.361 15.7759 142.361 14.7662V14.2614H143.371H145.138H146.526C147.157 14.2614 147.662 14.1352 147.915 13.7566C148.167 13.5042 148.293 12.9993 148.293 12.2421V7.95105C148.167 7.95105 148.167 7.82484 148.041 7.82484ZM140.342 12.7469H138.954C138.449 12.7469 138.07 12.6207 137.818 12.3683C137.566 12.1159 137.439 11.7373 137.439 11.1062C137.439 10.4752 137.566 10.0966 137.818 9.71794C138.07 9.33932 138.449 9.21312 138.954 9.21312C139.459 9.21312 139.837 9.33932 140.09 9.71794C140.342 9.97036 140.468 10.4752 140.468 11.1062V12.7469H140.342Z" fill="white"/>
<path d="M150.439 3.78629C150.312 3.78629 150.312 3.78625 150.312 3.91246V14.009C150.312 14.1352 150.312 14.1352 150.439 14.1352H151.827C151.953 14.1352 151.953 14.1352 151.953 14.009V3.91246C151.953 3.78625 151.953 3.78629 151.827 3.78629H150.439Z" fill="white"/>
<path d="M149.429 3.02902H152.71C152.71 3.02902 152.837 3.02901 152.837 2.9028V2.39798C152.837 2.27178 152.837 2.27177 152.71 2.27177H151.196C151.07 2.14556 150.944 2.14558 150.817 1.89316C150.691 1.76696 150.691 1.51451 150.691 1.38831C150.691 1.13589 150.817 1.00969 150.944 0.883486C151.07 0.757279 151.322 0.631095 151.448 0.631095C151.575 0.631095 151.701 0.631065 151.827 0.757272C151.953 0.883478 152.079 0.883494 152.206 1.0097H152.332L152.71 0.631095V0.504881C152.584 0.378674 152.458 0.252444 152.206 0.126237C151.953 3.0221e-05 151.701 6.10352e-05 151.448 6.10352e-05C151.196 6.10352e-05 150.943 3.0221e-05 150.691 0.126237C150.439 0.252444 150.313 0.378674 150.186 0.504881C150.06 0.631088 149.934 0.757287 149.934 1.0097C149.934 1.13591 149.808 1.38831 149.808 1.51452C149.808 1.64073 149.808 1.89313 149.934 2.01934C149.934 2.14555 150.06 2.27178 150.06 2.39798H149.555C149.555 2.39798 149.429 2.39799 149.429 2.5242V3.02902C149.303 3.02902 149.303 3.02902 149.429 3.02902Z" fill="white"/>
<path d="M157.506 6.31036H159.021C159.147 6.31036 159.147 6.31035 159.147 6.18415V4.79586C159.147 4.66965 159.147 4.66965 159.021 4.66965H157.506C157.38 4.66965 157.38 4.66965 157.38 4.79586V6.18415C157.38 6.31035 157.38 6.31036 157.506 6.31036Z" fill="white"/>
<path d="M169.117 12.8732C169.243 12.4945 169.243 12.1159 169.243 11.6111V10.7277C169.243 10.0966 169.117 9.59179 168.991 9.21317C168.865 8.83455 168.612 8.58212 168.234 8.3297C167.981 8.07729 167.477 7.9511 167.098 7.9511C166.593 7.82489 166.214 7.82488 165.583 7.82488L168.108 4.92214C168.108 4.79593 168.108 4.79592 168.108 4.66971L167.098 3.78629C166.972 3.78629 166.972 3.78629 166.846 3.78629L163.564 7.69867L163.438 7.82488C163.438 7.82488 163.312 7.95111 163.312 8.07731V9.08695C163.312 9.21316 163.312 9.21317 163.438 9.21317H165.962C166.467 9.21317 166.845 9.33936 167.098 9.59177C167.35 9.84419 167.477 10.0966 167.477 10.6015V11.4849C167.477 11.7373 167.477 11.8635 167.477 12.1159C167.477 12.2421 167.35 12.3683 167.35 12.4946C167.224 12.6208 167.098 12.6207 166.972 12.7469C166.845 12.7469 166.593 12.7469 166.341 12.7469H162.554H160.661H160.409C160.03 12.7469 159.652 12.6208 159.525 12.4946C159.273 12.3683 159.147 12.1159 159.147 11.7373V7.9511C159.147 7.82489 159.147 7.82488 159.021 7.82488H157.506C157.38 7.82488 157.38 7.82489 157.38 7.9511V13.378C157.38 13.7566 157.38 14.009 157.38 14.3877C157.38 14.6401 157.38 14.8925 157.254 15.1449C157.128 15.3973 157.001 15.5235 156.875 15.6497C156.749 15.7759 156.497 15.7759 156.244 15.7759H155.866C155.739 15.7759 155.739 15.7759 155.739 15.9021V17.1642C155.739 17.2904 155.739 17.2904 155.866 17.2904H156.37C156.875 17.2904 157.254 17.1642 157.632 17.038C158.011 16.9118 158.263 16.6594 158.516 16.407C158.768 16.1546 158.894 15.7759 159.021 15.3973C159.147 15.0187 159.147 14.5139 159.147 13.8828V13.6304C159.273 13.8828 159.525 14.009 159.778 14.009C160.03 14.009 160.283 14.1352 160.661 14.1352H162.554H167.098C167.477 14.1352 167.855 14.1352 168.108 14.009C168.36 13.8828 168.612 13.7566 168.865 13.6304C168.865 13.5042 168.991 13.2518 169.117 12.8732Z" fill="white"/>
<path d="M177.321 13.3779C177.573 13.7566 177.952 13.8828 178.33 14.009C178.709 14.1352 179.214 14.2614 179.719 14.2614C180.223 14.2614 180.602 14.2614 180.981 14.1352C181.359 14.009 181.738 13.7566 181.99 13.5041C182.243 13.2517 182.495 12.8731 182.621 12.4945C182.748 12.1159 182.874 11.611 182.874 10.98C182.874 10.349 182.748 9.84417 182.621 9.33934C182.495 8.96072 182.243 8.58207 181.99 8.32966C181.738 8.07725 181.359 7.82483 180.981 7.69862C180.602 7.57242 180.223 7.57245 179.719 7.57245C179.214 7.57245 178.835 7.57242 178.457 7.69862C178.078 7.82483 177.699 7.95107 177.447 8.20348C177.195 8.4559 176.942 8.8345 176.816 9.21312C176.69 9.59174 176.563 10.0966 176.563 10.7276C176.563 10.8538 176.563 10.8538 176.563 10.98C176.563 11.1062 176.563 11.1062 176.563 11.2324C176.563 11.4849 176.564 11.7373 176.437 11.8635C176.437 11.9897 176.311 12.2421 176.185 12.2421C176.059 12.3683 175.932 12.3683 175.932 12.4945C175.806 12.4945 175.68 12.6207 175.554 12.6207H174.923H174.67C174.292 12.6207 173.913 12.4945 173.787 12.3683C173.535 12.2421 173.408 11.9897 173.408 11.611V7.82484C173.408 7.69863 173.408 7.69862 173.282 7.69862H171.894C171.768 7.69862 171.768 7.69863 171.768 7.82484V13.2518C171.768 13.6304 171.768 13.8828 171.768 14.2614C171.768 14.5138 171.768 14.7662 171.641 15.0186C171.515 15.2711 171.389 15.3973 171.263 15.5235C171.137 15.6497 170.884 15.6497 170.632 15.6497H170.253C170.127 15.6497 170.127 15.6497 170.127 15.7759V17.038C170.127 17.1642 170.127 17.1641 170.253 17.1641H170.884C171.389 17.1641 171.768 17.038 172.146 16.9118C172.525 16.7855 172.777 16.5331 173.03 16.2807C173.282 16.0283 173.408 15.6497 173.535 15.271C173.661 14.8924 173.661 14.3876 173.661 13.7566V13.5041C173.787 13.7566 174.039 13.8828 174.292 13.8828C174.544 13.8828 174.797 14.009 175.175 14.009H175.68C175.806 14.009 175.932 14.009 176.185 14.009C176.311 14.009 176.564 14.009 176.69 13.8828C176.816 13.8828 176.942 13.7566 177.195 13.6304C177.447 13.5042 177.321 13.6303 177.321 13.3779ZM178.709 9.59173C178.961 9.21311 179.34 9.08691 179.845 9.08691C180.855 9.08691 181.233 9.71794 181.233 10.98C181.233 11.611 181.107 12.1159 180.855 12.3683C180.602 12.6207 180.223 12.7469 179.719 12.7469C179.214 12.7469 178.835 12.6207 178.583 12.3683C178.33 12.1159 178.204 11.611 178.204 10.98C178.33 10.349 178.457 9.84414 178.709 9.59173Z" fill="white"/>
<path d="M20.0669 6.10352e-05C24.3579 6.10352e-05 27.8917 3.53383 27.8917 7.82486V15.9021C23.6007 15.9021 20.0669 12.3683 20.0669 8.07729V6.10352e-05Z" fill="white"/>
<path d="M20.0669 32.0566C24.3579 32.0566 27.8917 35.5904 27.8917 39.8814V47.9587C23.6007 47.9587 20.0669 44.4249 20.0669 40.1339V32.0566Z" fill="white"/>
<path d="M0 27.8917C0 23.6007 3.53377 20.0669 7.8248 20.0669H15.902C15.902 24.358 12.3683 27.8917 8.07723 27.8917H0Z" fill="white"/>
<path d="M32.0565 27.8917C32.0565 23.6007 35.5903 20.0669 39.8813 20.0669H47.9586C47.9586 24.358 44.4248 27.8917 40.1338 27.8917H32.0565Z" fill="white"/>
<path d="M9.71789 43.6676C6.68893 40.6387 6.68893 35.7166 9.71789 32.6876L15.3972 27.0083C18.4262 30.0373 18.4262 34.9593 15.3972 37.9883L9.71789 43.6676Z" fill="white"/>
<path d="M32.4352 21.0765C29.4062 18.0476 29.4062 13.1255 32.4352 10.0965L38.1145 4.41724C41.1435 7.4462 41.1435 12.3682 38.1145 15.3972L32.4352 21.0765Z" fill="white"/>
<path d="M43.6676 38.2407C40.6386 41.2697 35.7166 41.2697 32.6876 38.2407L27.0083 32.5614C30.0373 29.5324 34.9593 29.5324 37.9883 32.5614L43.6676 38.2407Z" fill="white"/>
<path d="M20.9503 15.5235C17.9213 18.5524 12.9993 18.5524 9.97033 15.5235L4.29102 9.84417C7.31998 6.81521 12.242 6.81521 15.271 9.84417L20.9503 15.5235Z" fill="white"/>
</svg>
