<svg width="192" height="49" viewBox="0 0 192 49" fill="none" xmlns="http://www.w3.org/2000/svg">
<path d="M100.082 41.3959H98.946L97.9363 43.5414H97.1791V41.3959H96.1694V46.6966H97.1791V44.5511H97.9363L99.0722 46.6966H100.208L98.6936 44.0463L100.082 41.3959Z" fill="#2D3955"/>
<path d="M100.966 41.6483C100.713 41.9008 100.587 42.1531 100.587 42.5318V45.5607C100.587 46.0655 100.713 46.318 100.966 46.4442C101.218 46.5704 101.47 46.6966 101.849 46.6966C102.732 46.6966 103.49 46.6966 104.121 46.5704V45.8131H102.101C101.849 45.8131 101.597 45.687 101.597 45.3083V44.5511H103.742V43.6676H101.597V42.9104C101.597 42.658 101.723 42.5318 102.101 42.5318H104.121V41.6483C103.363 41.6483 102.606 41.5221 101.849 41.5221C101.47 41.3959 101.218 41.5221 100.966 41.6483Z" fill="#2D3955"/>
<path d="M104.751 42.4055H107.149L104.751 45.8131V46.6966H108.411V45.8131H106.14L108.411 42.2794V41.3959H104.751V42.4055Z" fill="#2D3955"/>
<path d="M110.557 41.3959L108.917 46.6966H110.052L110.431 45.5607H112.198L112.576 46.6966H113.712L112.072 41.3959H110.557ZM110.557 44.6773L111.188 42.2794L111.819 44.6773H110.557Z" fill="#2D3955"/>
<path d="M116.489 41.3959H114.217V46.6966H116.489C117.12 46.6966 117.625 46.4442 117.877 46.0656C118.13 45.687 118.382 44.9297 118.382 44.0463C118.382 43.1628 118.256 42.5318 118.003 42.0269C117.625 41.6483 117.12 41.3959 116.489 41.3959ZM117.12 45.3083C116.994 45.5607 116.741 45.6869 116.489 45.6869H115.353V42.2794H116.489C116.741 42.2794 116.868 42.2793 116.994 42.4055C117.12 42.5318 117.246 42.658 117.246 42.9104C117.372 43.1628 117.372 43.5414 117.372 43.92C117.246 44.6773 117.246 45.0559 117.12 45.3083Z" fill="#2D3955"/>
<path d="M124.44 42.2794H122.925C122.925 42.2794 122.799 42.2793 122.799 42.4055V43.1628C122.799 43.1628 122.799 43.289 122.925 43.289H124.061C124.692 43.289 124.945 43.5414 124.945 44.0462V44.6773C124.945 44.8035 124.945 44.9297 124.945 45.0559C124.945 45.1821 124.945 45.1821 124.818 45.3083C124.818 45.3083 124.692 45.4345 124.566 45.4345C124.44 45.4345 124.314 45.4345 124.187 45.4345H122.547C122.547 45.4345 122.42 45.4345 122.42 45.5607V46.318C122.42 46.318 122.42 46.4442 122.547 46.4442H124.692C124.945 46.4442 125.071 46.4442 125.323 46.318C125.449 46.318 125.576 46.1918 125.702 46.0656C125.828 45.9394 125.954 45.8131 125.954 45.5607C125.954 45.3083 126.08 45.0559 126.08 44.8035V44.0462C126.08 43.5414 125.954 43.0366 125.702 42.7842C125.323 42.4056 124.945 42.2794 124.44 42.2794Z" fill="#2D3955"/>
<path d="M127.09 40.0076L126.964 46.0655C126.964 46.0655 126.964 46.1917 127.09 46.1917H127.974C127.974 46.1917 128.1 46.1918 128.1 46.0655V40.0076C128.1 40.0076 128.1 39.8814 127.974 39.8814H127.09V40.0076Z" fill="#2D3955"/>
<path d="M129.741 40.6387V41.3959C129.741 41.3959 129.741 41.5221 129.867 41.5221H130.75C130.75 41.5221 130.877 41.5221 130.877 41.3959V40.6387C130.877 40.6387 130.877 40.5125 130.75 40.5125L129.741 40.6387Z" fill="#2D3955"/>
<path d="M136.682 47.0752C136.556 47.0752 136.556 47.0752 136.682 47.0752L136.556 47.9587C136.556 47.9587 136.556 48.0848 136.682 48.0848H137.439C137.439 48.0848 137.565 48.0849 137.565 47.9587V47.0752C137.565 47.0752 137.565 46.949 137.439 46.949H136.682V47.0752Z" fill="#2D3955"/>
<path d="M135.42 47.0752L135.294 47.9587C135.294 47.9587 135.294 48.0848 135.42 48.0848H136.177C136.177 48.0848 136.304 48.0849 136.304 47.9587V47.0752C136.304 47.0752 136.304 46.949 136.177 46.949H135.42V47.0752Z" fill="#2D3955"/>
<path d="M143.497 42.7842C143.371 42.658 143.119 42.5318 142.866 42.5318C142.614 42.5318 142.361 42.5318 141.983 42.4056L143.497 40.6387V40.5124L142.866 40.0076H142.74L140.721 42.2794C140.721 42.2794 140.721 42.4056 140.594 42.4056V42.5318V43.1628C140.594 43.1628 140.594 43.289 140.721 43.289H142.235C142.614 43.289 142.74 43.4152 142.992 43.5414C143.119 43.6677 143.245 43.9201 143.245 44.1725V44.6773C143.245 44.8035 143.245 44.9297 143.245 45.0559C143.245 45.1821 143.245 45.1821 143.118 45.3083C143.118 45.3083 142.992 45.4345 142.866 45.4345C142.74 45.4345 142.614 45.4345 142.487 45.4345H140.216H139.08H137.944H137.818C137.565 45.4345 137.439 45.4345 137.313 45.3083C137.187 45.1821 137.061 45.0559 137.061 44.9297V42.658C137.061 42.658 137.061 42.5318 136.934 42.5318H136.177H136.051C136.051 42.5318 136.051 42.5318 136.051 42.658V44.5511C136.051 44.6773 136.051 44.8035 136.051 44.9297C136.051 45.0559 136.051 45.1821 136.051 45.1821C136.051 45.3083 135.925 45.3083 135.925 45.3083C135.925 45.3083 135.799 45.3083 135.672 45.3083H135.041H133.905H132.77H131.634H131.507C131.255 45.3083 131.129 45.3083 131.003 45.1821C130.876 45.0559 130.75 44.9297 130.75 44.8035V42.5318C130.75 42.5318 130.75 42.4056 130.624 42.4056H129.741C129.741 42.4056 129.614 42.4056 129.614 42.5318V45.8132C129.614 46.0656 129.614 46.1918 129.614 46.4442C129.614 46.5704 129.614 46.6966 129.488 46.8228C129.488 46.949 129.362 47.0752 129.236 47.0752C129.11 47.0752 128.983 47.2014 128.857 47.2014H128.605C128.605 47.2014 128.479 47.2014 128.479 47.3277V48.0849C128.479 48.0849 128.479 48.2111 128.605 48.2111H128.983C129.236 48.2111 129.488 48.2111 129.741 48.0849C129.993 47.9587 130.119 47.8325 130.245 47.7063C130.372 47.5801 130.498 47.3276 130.498 47.0752C130.498 46.8228 130.624 46.5704 130.624 46.1918V46.0656C130.75 46.1918 130.876 46.318 131.003 46.318C131.129 46.318 131.381 46.318 131.507 46.318H132.643H133.779H134.915H135.799C136.051 46.318 136.303 46.318 136.43 46.1918C136.556 46.0656 136.682 45.9394 136.808 45.8132C136.934 46.0656 137.061 46.1918 137.187 46.1918C137.313 46.1918 137.565 46.318 137.818 46.318H138.954H140.09H142.74C142.992 46.318 143.119 46.318 143.371 46.1918C143.497 46.1918 143.623 46.0656 143.75 45.9394C143.876 45.8132 143.876 45.687 144.002 45.4345C144.002 45.1821 144.128 44.9297 144.128 44.6773V44.1725C144.128 43.7939 144.128 43.5414 144.002 43.289C143.876 43.0366 143.75 42.9104 143.497 42.7842Z" fill="#2D3955"/>
<path d="M60.0744 23.7269L57.2979 32.6876H59.191L59.6958 30.7945H62.7247L63.3558 32.6876H65.2489L62.4723 23.7269H60.0744ZM60.0744 29.1538L61.2103 25.2414L62.3461 29.1538H60.0744Z" fill="#2D3955"/>
<path d="M71.0546 28.0179C71.4333 27.8917 71.8119 27.6393 71.9381 27.3869C72.1905 27.0083 72.3167 26.6296 72.3167 26.1248C72.3167 24.6103 71.4333 23.7269 69.7926 23.7269H66.2588V32.6876H69.9188C70.8022 32.6876 71.4333 32.4352 71.9381 32.0566C72.4429 31.6779 72.5691 31.0469 72.5691 30.1635C72.5691 29.5324 72.4429 29.0276 72.0643 28.649C71.8119 28.3965 71.4333 28.1441 71.0546 28.0179ZM67.8995 25.3676H69.6664C69.9188 25.3676 70.1712 25.4938 70.2974 25.62C70.4236 25.7462 70.5498 25.9986 70.5498 26.3773C70.5498 26.7559 70.4236 27.0083 70.2974 27.1345C70.1712 27.3869 69.9188 27.3869 69.6664 27.3869H67.8995V25.3676ZM69.7926 31.0469H67.8995V28.7752H69.7926C70.045 28.7752 70.2974 28.9014 70.5498 29.0276C70.8022 29.28 70.8022 29.5324 70.8022 29.7848C70.8022 30.6683 70.4236 31.0469 69.7926 31.0469Z" fill="#2D3955"/>
<path d="M78.8793 29.7848C78.8793 30.2896 78.7531 30.6683 78.5007 30.7945C78.2483 31.0469 77.7434 31.1731 77.2386 31.1731C76.7338 31.1731 76.229 31.0469 75.9765 30.7945C75.7241 30.5421 75.5979 30.2896 75.5979 29.7848V23.7269H73.8311V29.7848C73.8311 30.9207 74.0834 31.6779 74.7145 32.0566C75.3455 32.4352 76.229 32.6876 77.3648 32.6876C78.5007 32.6876 79.3842 32.4352 80.0152 32.0566C80.6462 31.6779 80.8986 30.9207 80.8986 29.7848V23.7269H79.1317V29.7848H78.8793Z" fill="#2D3955"/>
<path d="M88.9757 23.7269H85.1895V32.6876H88.9757C89.9853 32.6876 90.8688 32.309 91.3736 31.5517C91.8784 30.7945 92.1308 29.6586 92.1308 28.1441C92.1308 26.7559 91.8784 25.62 91.3736 24.8628C90.995 24.1055 90.1115 23.7269 88.9757 23.7269ZM89.9853 30.4158C89.7329 30.9207 89.3543 31.1731 88.8494 31.1731H87.0826V25.3676H88.8494C89.2281 25.3676 89.4805 25.4938 89.7329 25.62C89.9853 25.7462 90.1115 26.1248 90.2377 26.5035C90.3639 26.8821 90.3639 27.5131 90.3639 28.2704C90.3639 29.1538 90.2377 29.911 89.9853 30.4158Z" fill="#2D3955"/>
<path d="M98.5675 27.3869H95.16V23.7269H93.3931V32.6876H95.16V29.0276H98.5675V32.6876H100.461V23.7269H98.5675V27.3869Z" fill="#2D3955"/>
<path d="M103.237 32.6876L103.742 30.7945H106.771L107.402 32.6876H109.295L106.518 23.7269H104.247L101.47 32.6876H103.237ZM105.383 25.2414L106.518 29.1538H104.247L105.383 25.2414Z" fill="#2D3955"/>
<path d="M116.741 30.1635C116.741 29.5325 116.615 29.0277 116.236 28.649C115.984 28.2704 115.605 28.018 115.101 27.8918C115.479 27.7656 115.858 27.5132 115.984 27.2608C116.236 26.8821 116.363 26.5035 116.363 25.9987C116.363 24.4842 115.479 23.6008 113.838 23.6008H110.305V32.5615H113.965C114.848 32.5615 115.479 32.3091 115.984 31.9304C116.489 31.8042 116.741 31.1732 116.741 30.1635ZM112.198 25.3677H113.965C114.217 25.3677 114.47 25.4939 114.596 25.6201C114.722 25.7463 114.848 25.9987 114.848 26.3773C114.848 26.756 114.722 27.0084 114.596 27.1346C114.47 27.387 114.217 27.387 113.965 27.387H112.198V25.3677ZM113.965 31.047H112.072V28.7753H113.965C114.217 28.7753 114.47 28.9015 114.722 29.0277C114.974 29.2801 114.974 29.5325 114.974 29.7849C114.974 30.6683 114.722 31.047 113.965 31.047Z" fill="#2D3955"/>
<path d="M119.644 23.7269H117.877V32.6876H119.644V23.7269Z" fill="#2D3955"/>
<path d="M129.74 27.7655L126.207 27.6393V26.1248C126.207 25.8724 126.333 25.7462 126.459 25.62C126.585 25.4938 126.838 25.3676 126.964 25.3676H130.371V23.8531C129.362 23.7269 128.1 23.7269 126.459 23.7269C125.954 23.7269 125.449 23.8531 124.945 24.2317C124.566 24.6103 124.313 25.1152 124.313 25.7462V32.6876H126.08V29.28L129.614 29.1538V27.7655H129.74Z" fill="#2D3955"/>
<path d="M131.633 25.3677C131.381 25.9987 131.255 27.0084 131.255 28.2704C131.255 29.5325 131.381 30.5421 131.633 31.1732C131.886 31.8042 132.265 32.3091 132.769 32.5615C133.274 32.8139 134.031 32.9401 134.915 32.9401C135.798 32.9401 136.556 32.8139 137.06 32.5615C137.565 32.3091 137.944 31.9304 138.196 31.1732C138.449 30.5421 138.575 29.5325 138.575 28.2704C138.575 27.0084 138.449 25.9987 138.196 25.3677C137.944 24.7366 137.565 24.2318 137.06 23.9794C136.556 23.727 135.798 23.6008 134.915 23.6008C134.031 23.6008 133.4 23.727 132.769 23.9794C132.265 24.2318 131.886 24.7366 131.633 25.3677ZM133.148 26.2511C133.274 25.8725 133.4 25.4939 133.779 25.3677C134.031 25.2415 134.41 25.1153 134.915 25.1153C135.42 25.1153 135.798 25.2415 136.051 25.3677C136.303 25.4939 136.556 25.7463 136.556 26.2511C136.682 26.6297 136.682 27.2608 136.682 28.1442C136.682 29.0277 136.682 29.5325 136.556 30.0373C136.429 30.4159 136.303 30.7946 136.051 30.9208C135.798 31.047 135.42 31.1732 134.915 31.1732C134.41 31.1732 134.031 31.047 133.779 30.9208C133.527 30.7946 133.274 30.5422 133.274 30.0373C133.148 29.6587 133.148 29.0277 133.148 28.1442C133.022 27.387 133.022 26.7559 133.148 26.2511Z" fill="#2D3955"/>
<path d="M145.516 23.9794C145.012 23.727 144.254 23.6008 143.371 23.6008C142.487 23.6008 141.856 23.727 141.225 23.9794C140.721 24.2318 140.342 24.7366 140.09 25.3677C139.837 25.9987 139.711 27.0084 139.711 28.2704C139.711 29.5325 139.837 30.5421 140.09 31.1732C140.342 31.8042 140.721 32.3091 141.225 32.5615C141.73 32.8139 142.487 32.9401 143.371 32.9401C144.254 32.9401 145.012 32.8139 145.516 32.5615C146.021 32.3091 146.4 31.9304 146.652 31.1732C146.905 30.5421 147.031 29.5325 147.031 28.2704C147.031 27.0084 146.905 25.9987 146.652 25.3677C146.4 24.7366 146.021 24.2318 145.516 23.9794ZM145.138 30.0373C145.012 30.4159 144.885 30.7946 144.633 30.9208C144.381 31.047 144.002 31.1732 143.497 31.1732C142.992 31.1732 142.614 31.047 142.361 30.9208C142.109 30.7946 141.856 30.5422 141.856 30.0373C141.73 29.6587 141.73 29.0277 141.73 28.1442C141.73 27.2608 141.73 26.6297 141.856 26.2511C141.983 25.8725 142.109 25.4939 142.487 25.3677C142.74 25.2415 143.118 25.1153 143.623 25.1153C144.128 25.1153 144.507 25.2415 144.759 25.3677C145.012 25.4939 145.264 25.7463 145.264 26.2511C145.39 26.6297 145.39 27.2608 145.39 28.1442C145.264 29.0277 145.138 29.6587 145.138 30.0373Z" fill="#2D3955"/>
<path d="M152.079 23.7269H148.293V32.6876H152.079C153.089 32.6876 153.972 32.309 154.477 31.5517C154.982 30.7945 155.234 29.6586 155.234 28.1441C155.234 26.7559 154.982 25.62 154.477 24.8628C154.098 24.1055 153.341 23.7269 152.079 23.7269ZM153.089 30.4158C152.836 30.9207 152.458 31.1731 151.953 31.1731H150.186V25.3676H151.953C152.332 25.3676 152.584 25.4938 152.836 25.62C153.089 25.7462 153.215 26.1248 153.341 26.5035C153.467 26.8821 153.467 27.5131 153.467 28.2704C153.467 29.1538 153.341 29.911 153.089 30.4158Z" fill="#2D3955"/>
<path d="M164.952 27.3869H161.545V23.7269H159.778V32.6876H161.545V29.0276H164.952V32.6876H166.719V23.7269H164.952V27.3869Z" fill="#2D3955"/>
<path d="M173.408 29.7848C173.408 30.2896 173.282 30.6683 173.03 30.7945C172.777 31.0469 172.272 31.1731 171.767 31.1731C171.263 31.1731 170.758 31.0469 170.505 30.7945C170.253 30.5421 170.127 30.2896 170.127 29.7848V23.7269H168.36V29.7848C168.36 30.9207 168.612 31.6779 169.243 32.0566C169.874 32.4352 170.758 32.6876 171.894 32.6876C173.03 32.6876 173.913 32.4352 174.544 32.0566C175.175 31.6779 175.427 30.9207 175.427 29.7848V23.7269H173.661V29.7848H173.408Z" fill="#2D3955"/>
<path d="M182.621 28.7752C182.369 28.3966 181.99 28.1441 181.485 28.0179C181.864 27.8917 182.243 27.6393 182.369 27.3869C182.621 27.0083 182.747 26.6296 182.747 26.1248C182.747 24.6103 181.864 23.7269 180.223 23.7269H176.689V32.6876H180.349C181.233 32.6876 181.864 32.4352 182.369 32.0566C182.874 31.6779 183 31.0469 183 30.1635C183 29.6586 182.874 29.1538 182.621 28.7752ZM178.456 25.3676H180.223C180.476 25.3676 180.728 25.4938 180.854 25.62C180.98 25.7462 181.107 25.9986 181.107 26.3773C181.107 26.7559 180.98 27.0083 180.854 27.1345C180.728 27.3869 180.476 27.3869 180.223 27.3869H178.456V25.3676ZM180.223 31.0469H178.33V28.7752H180.223C180.476 28.7752 180.728 28.9014 180.98 29.0276C181.233 29.28 181.233 29.5324 181.233 29.7848C181.359 30.6683 180.98 31.0469 180.223 31.0469Z" fill="#2D3955"/>
<path d="M58.1813 12.8731C58.4337 13.1255 58.6861 13.2517 59.0647 13.378C59.4434 13.5042 59.822 13.5042 60.2006 13.5042C60.5792 13.5042 60.8316 13.5042 61.0841 13.378C61.3365 13.2517 61.5889 13.1256 61.8413 12.9993C61.9675 13.5042 62.0937 13.7566 62.3461 13.8828C62.5985 14.009 62.9772 14.1352 63.482 14.1352H64.7441C64.7441 14.1352 64.7441 14.1352 64.8703 14.1352C64.8703 14.1352 64.8703 14.1352 64.9965 14.1352H66.6372C67.2682 14.1352 67.773 14.009 68.0254 13.6304C68.2779 13.378 68.404 12.8731 68.404 12.1159V7.95107C68.404 7.82486 68.404 7.82486 68.2778 7.82486H66.8896C66.7634 7.82486 66.7634 7.82486 66.7634 7.95107V11.8635C66.7634 12.1159 66.7634 12.3683 66.6372 12.4945C66.5109 12.6207 66.3847 12.6207 66.1323 12.6207H65.1227C65.1227 12.6207 65.1227 12.6207 64.9965 12.6207C64.9965 12.6207 64.9965 12.6207 64.8703 12.6207H64.2392C63.9868 12.6207 63.7344 12.6207 63.7344 12.4945C63.6082 12.3683 63.6082 12.1159 63.6082 11.8635V6.94143C63.6082 6.81522 63.6082 6.81522 63.482 6.81522H62.0937C61.9675 6.81522 61.9675 6.81522 61.9675 6.94143V7.57247H60.3268C59.9482 7.57247 59.5696 7.57243 59.191 7.69864C58.8123 7.82485 58.5599 7.95109 58.1813 8.2035C57.9289 8.45591 57.6764 8.70831 57.5502 9.21314C57.424 9.59176 57.2979 10.0966 57.2979 10.7276C57.2979 11.2325 57.424 11.7373 57.5502 11.9897C57.6764 12.3683 57.9289 12.6207 58.1813 12.8731ZM59.4433 9.46557C59.6958 9.21315 60.0744 9.08692 60.453 9.08692H61.8413V10.349C61.8413 10.8538 61.7151 11.3586 61.4627 11.6111C61.2102 11.8635 60.8316 11.9897 60.3268 11.9897C59.9482 11.9897 59.5696 11.8635 59.3172 11.6111C59.0648 11.3586 58.9385 10.98 58.9385 10.6014C59.0647 10.0966 59.1909 9.71798 59.4433 9.46557Z" fill="#2D3955"/>
<path d="M60.9578 5.67941H62.2199C62.3461 5.67941 62.3461 5.6794 62.3461 5.55319V4.16491C62.3461 4.0387 62.3461 4.0387 62.2199 4.0387H60.9578C60.8316 4.0387 60.8316 4.0387 60.8316 4.16491V5.55319C60.7054 5.6794 60.8316 5.67941 60.9578 5.67941Z" fill="#2D3955"/>
<path d="M58.9387 5.67941H60.2008C60.327 5.67941 60.327 5.6794 60.327 5.55319V4.16491C60.327 4.0387 60.327 4.0387 60.2008 4.0387H58.9387C58.8125 4.0387 58.8125 4.0387 58.8125 4.16491V5.55319C58.8125 5.6794 58.8125 5.67941 58.9387 5.67941Z" fill="#2D3955"/>
<path d="M67.1419 17.038V15.6497C67.1419 15.5235 67.1419 15.5235 67.0157 15.5235H65.7536C65.6274 15.5235 65.6274 15.5235 65.6274 15.6497V17.038C65.6274 17.1642 65.6274 17.1641 65.7536 17.1641H67.0157C67.0157 17.1641 67.1419 17.1642 67.1419 17.038Z" fill="#2D3955"/>
<path d="M67.5205 15.6497V17.038C67.5205 17.1642 67.5205 17.1641 67.6467 17.1641H68.9088C69.035 17.1641 69.035 17.1642 69.035 17.038V15.6497C69.035 15.5235 69.035 15.5235 68.9088 15.5235H67.6467C67.5205 15.5235 67.5205 15.5235 67.5205 15.6497Z" fill="#2D3955"/>
<path d="M72.1902 6.31036H73.7047C73.8309 6.31036 73.8309 6.31035 73.8309 6.18415V4.79586C73.8309 4.66965 73.8309 4.66965 73.7047 4.66965H72.1902C72.064 4.66965 72.064 4.66965 72.064 4.79586V6.18415C72.064 6.31035 72.064 6.31036 72.1902 6.31036Z" fill="#2D3955"/>
<path d="M85.0634 12.7469H81.782C81.6558 12.7469 81.5296 12.6207 81.4034 12.6207C81.2772 12.4945 81.1509 12.3683 81.0247 12.2421C80.8985 12.1159 80.7723 11.8635 80.6461 11.7373C80.5199 11.4848 80.5199 11.2324 80.5199 10.98C80.5199 10.4752 80.6461 10.0966 80.8985 9.71794C81.1509 9.46553 81.5295 9.21312 82.1606 9.21312C82.7916 9.21312 83.2965 9.46554 83.8013 9.97037C83.9275 10.0966 83.9275 10.0966 84.0537 9.97037L84.9371 9.08691C85.0634 9.08691 85.0634 8.96072 84.9371 8.83452C84.6847 8.4559 84.3061 8.20347 83.8013 7.95105C83.2965 7.69864 82.7916 7.57245 82.0344 7.57245C81.4034 7.57245 80.8985 7.69863 80.5199 7.82484C80.1413 8.07725 79.7627 8.20347 79.5103 8.58209C79.2579 8.96071 79.0054 9.21311 79.0054 9.59173C78.8792 9.97035 78.8792 10.349 78.8792 10.7276C78.8792 11.2324 79.0054 11.6111 79.1316 11.8635C79.2578 12.2421 79.384 12.4945 79.6364 12.7469H77.9958H77.7433C77.3647 12.7469 76.9861 12.6207 76.8599 12.4945C76.6075 12.3683 76.4813 12.1159 76.4813 11.8635V10.4752C76.4813 9.46554 76.2289 8.83449 75.7241 8.32966C75.2192 7.95104 74.5882 7.69862 73.7047 7.69862H71.433C71.3068 7.69862 71.3068 7.69863 71.3068 7.82484V9.08691C71.3068 9.21312 71.3068 9.21312 71.433 9.21312H73.3261C73.8309 9.21312 74.2096 9.33931 74.462 9.59173C74.7144 9.84414 74.8406 10.0966 74.8406 10.6014V11.611C74.8406 11.8635 74.8406 11.9897 74.8406 12.1159C74.8406 12.2421 74.7144 12.3683 74.7144 12.4945C74.5882 12.6207 74.462 12.6207 74.3358 12.7469C74.2096 12.7469 73.9572 12.7469 73.7047 12.7469H70.802C70.6758 12.7469 70.6758 12.7469 70.6758 12.8731V14.1352C70.6758 14.2614 70.6758 14.2614 70.802 14.2614H74.2096C74.7144 14.2614 75.093 14.2614 75.4716 14.1352C75.8502 14.009 76.1027 13.7566 76.2289 13.3779C76.3551 13.7566 76.6075 14.009 76.9861 14.1352C77.2385 14.2614 77.6171 14.2614 77.9958 14.2614H85.1896C85.3158 14.2614 85.3158 14.2614 85.3158 14.1352V12.8731C85.1895 12.7469 85.1896 12.7469 85.0634 12.7469Z" fill="#2D3955"/>
<path d="M81.2771 6.31036H82.7916C82.9178 6.31036 82.9178 6.31035 82.9178 6.18415V4.79586C82.9178 4.66965 82.9178 4.66965 82.7916 4.66965H81.2771C81.1509 4.66965 81.1509 4.66965 81.1509 4.79586V6.18415C81.0247 6.31035 81.1509 6.31036 81.2771 6.31036Z" fill="#2D3955"/>
<path d="M88.4711 4.92214H91.7525C91.7525 4.92214 91.8787 4.92213 91.8787 4.79593V4.16489C91.8787 4.03868 91.8787 4.03868 91.7525 4.03868H90.2381C90.1119 3.91247 89.9856 3.91249 89.8594 3.66007C89.7332 3.53386 89.7332 3.28146 89.7332 3.15525C89.7332 2.90284 89.8594 2.7766 89.9856 2.65039C90.1118 2.52419 90.3642 2.398 90.4904 2.398C90.6167 2.398 90.7429 2.39801 90.8691 2.52422C90.9953 2.65042 91.1215 2.6504 91.2477 2.77661H91.3739L91.7525 2.398V2.27179C91.6263 2.14558 91.5001 2.01939 91.2477 1.89318C90.9953 1.76698 90.7429 1.76697 90.4904 1.76697C90.238 1.76697 89.9856 1.76698 89.7332 1.89318C89.4808 2.01939 89.3546 2.14558 89.2284 2.27179C89.1022 2.39799 88.976 2.52419 88.976 2.77661C88.976 2.90281 88.8498 3.15522 88.8498 3.28143C88.8498 3.40763 88.8498 3.66008 88.976 3.78629C88.976 3.91249 89.1022 4.03868 89.1022 4.16489H88.5973C88.5973 4.16489 88.4711 4.1649 88.4711 4.29111V4.92214Z" fill="#2D3955"/>
<path d="M94.7811 13.5042C94.9073 13.8828 95.1597 14.009 95.5383 14.1352C95.7907 14.2614 96.1694 14.2614 96.548 14.2614H98.4411H99.8294C100.46 14.2614 100.965 14.1352 101.218 13.7566C101.47 13.5042 101.596 12.9994 101.596 12.2421V3.91246C101.596 3.78625 101.596 3.78629 101.47 3.78629H100.082C99.9556 3.78629 99.9556 3.78625 99.9556 3.91246V11.8635C99.9556 12.1159 99.9556 12.3683 99.8294 12.4946C99.7032 12.6208 99.577 12.6208 99.3245 12.6208H98.5673H96.6742H96.4218C95.6646 12.6208 95.2859 12.3683 95.1597 11.8635V3.91246C95.1597 3.78625 95.1597 3.78629 95.0335 3.78629H93.6452C93.519 3.78629 93.519 3.78625 93.519 3.91246V11.2325C93.519 11.4849 93.519 11.7373 93.519 11.8635C93.519 11.9897 93.519 12.2421 93.3928 12.2421C93.3928 12.3683 93.2666 12.3683 93.1404 12.4946C93.0142 12.4946 92.888 12.6208 92.7618 12.6208H91.1211V6.05799C91.1211 5.93179 91.1211 5.93178 90.9949 5.93178H89.6066C89.4804 5.93178 89.4804 5.93179 89.4804 6.05799V12.6208H86.7039C86.5776 12.6208 86.5776 12.6207 86.5776 12.7469V14.009C86.5776 14.1352 86.5776 14.1352 86.7039 14.1352H93.2666C93.7715 14.1352 94.1501 14.1352 94.4025 14.009C94.5287 13.8828 94.6549 13.7566 94.7811 13.5042Z" fill="#2D3955"/>
<path d="M110.936 20.067C111.062 20.067 111.062 20.0669 111.062 19.9407V18.5525C111.062 18.4262 111.062 18.4262 110.936 18.4262H109.674C109.547 18.4262 109.547 18.4262 109.547 18.5525V19.9407C109.547 20.0669 109.547 20.067 109.674 20.067H110.936Z" fill="#2D3955"/>
<path d="M112.955 20.067C113.081 20.067 113.081 20.0669 113.081 19.9407V18.5525C113.081 18.4262 113.081 18.4262 112.955 18.4262H111.693C111.567 18.4262 111.567 18.4262 111.567 18.5525V19.9407C111.567 20.0669 111.567 20.067 111.693 20.067H112.955Z" fill="#2D3955"/>
<path d="M120.401 15.5235H118.887C118.761 15.5235 118.761 15.5235 118.761 15.6497V17.038C118.761 17.1642 118.761 17.1641 118.887 17.1641H120.401C120.528 17.1641 120.528 17.1642 120.528 17.038V15.6497C120.528 15.5235 120.528 15.5235 120.401 15.5235Z" fill="#2D3955"/>
<path d="M125.071 14.2614C125.324 14.2614 125.576 14.2614 125.828 14.2614C126.081 14.2614 126.207 14.1352 126.333 14.009C126.459 14.1352 126.712 14.2614 126.964 14.2614H131.003C131.508 14.2614 132.013 14.2614 132.391 14.1352C132.77 14.009 133.148 13.8828 133.401 13.7566C133.653 13.5042 133.779 13.2518 133.906 12.8731C134.032 12.4945 134.032 11.9897 134.032 11.3587C134.032 10.8539 133.906 10.349 133.779 9.84418C133.653 9.33936 133.401 8.96074 133.148 8.70833C132.896 8.32971 132.517 8.2035 132.013 7.95108C131.508 7.82487 131.003 7.69865 130.246 7.69865C129.615 7.69865 128.984 7.82487 128.479 7.95108C127.848 8.07729 127.343 8.3297 126.838 8.58212V4.03866C126.838 3.91245 126.838 3.91245 126.712 3.91245H125.324C125.197 3.91245 125.197 3.91245 125.197 4.03866V10.8538C125.197 11.2324 125.197 11.6111 125.197 11.8635C125.197 12.1159 125.197 12.3683 125.071 12.4945C125.071 12.6207 124.945 12.7469 124.819 12.7469C124.693 12.7469 124.566 12.8731 124.44 12.8731H123.683H121.916H121.664C121.285 12.8731 120.906 12.747 120.78 12.6208C120.528 12.4945 120.401 12.2421 120.401 11.8635V8.0773C120.401 7.95109 120.401 7.95108 120.275 7.95108H118.887C118.761 7.95108 118.761 7.95109 118.761 8.0773V11.3587C118.761 11.6111 118.761 11.8635 118.761 11.9897C118.761 12.1159 118.761 12.3683 118.635 12.4945C118.635 12.6207 118.508 12.7469 118.382 12.7469C118.256 12.7469 118.13 12.8731 118.004 12.8731H117.246C117.246 12.8731 117.246 12.8731 117.12 12.8731H115.606C115.353 12.8731 114.975 12.8731 114.722 12.7469C114.47 12.6207 114.217 12.6207 113.839 12.4945C113.586 12.3683 113.208 12.2421 112.955 12.1159C112.703 11.9897 112.324 11.8635 112.072 11.7373C111.946 11.7373 111.946 11.7373 111.946 11.8635L111.567 13.1256C111.567 13.2518 111.567 13.2518 111.693 13.2518C112.198 13.5042 112.703 13.6304 113.081 13.7566C113.46 13.8828 113.839 14.009 114.091 14.1352C114.344 14.2614 114.47 14.3876 114.596 14.5139C114.722 14.6401 114.722 14.7663 114.722 15.0187C114.722 15.2711 114.596 15.3973 114.344 15.6497C114.091 15.7759 113.713 15.9021 113.081 15.9021H110.053C109.8 15.9021 109.421 15.9021 109.169 15.7759C108.917 15.6497 108.664 15.6497 108.412 15.3973C108.159 15.2711 108.033 15.0187 107.907 14.7662C107.781 14.5138 107.655 14.1352 107.655 13.7566C107.655 13.378 107.781 12.9994 107.907 12.6208C108.033 12.2421 108.159 11.8635 108.412 11.6111C108.412 11.4849 108.412 11.4849 108.412 11.3587L107.15 10.7276C107.024 10.7276 107.024 10.7276 106.897 10.7276C106.771 10.8539 106.645 11.1063 106.519 11.3587C106.393 11.6111 106.266 11.8635 106.266 12.1159C106.266 12.3683 106.14 12.6207 106.014 12.9994C106.014 13.2518 105.888 13.6304 105.888 13.8828C105.888 14.8925 106.266 15.7759 106.897 16.407C107.528 17.038 108.538 17.2904 109.8 17.2904H113.334C113.839 17.2904 114.344 17.2904 114.722 17.1642C115.101 17.038 115.479 16.9118 115.606 16.6593C115.858 16.4069 115.984 16.2807 116.11 16.0283C116.237 15.7759 116.237 15.5235 116.237 15.2711C116.237 15.0187 116.237 14.8924 116.11 14.64C115.984 14.5138 115.984 14.3876 115.984 14.2614H116.994H118.256C118.761 14.2614 119.139 14.2614 119.392 14.1352C119.644 14.009 119.897 13.7566 120.023 13.5042C120.149 13.8828 120.401 14.009 120.78 14.1352C121.033 14.2614 121.411 14.2614 121.664 14.2614H123.557H125.071ZM127.09 12.3683C127.09 12.2421 127.09 12.1159 127.09 11.9897V9.9704C127.469 9.71799 127.974 9.59179 128.605 9.46558C129.11 9.33937 129.741 9.21315 130.246 9.21315C130.624 9.21315 131.003 9.21316 131.255 9.33937C131.508 9.46557 131.76 9.59176 131.886 9.71797C132.013 9.84418 132.139 10.0966 132.265 10.349C132.391 10.6014 132.391 10.8538 132.391 11.2325C132.391 11.6111 132.391 11.8635 132.265 12.1159C132.265 12.3683 132.139 12.4945 132.013 12.6208C131.886 12.747 131.634 12.7469 131.381 12.7469C131.129 12.7469 130.75 12.7469 130.372 12.7469H126.964C127.09 12.6207 127.09 12.4945 127.09 12.3683Z" fill="#2D3955"/>
<path d="M129.867 6.31036H131.381C131.508 6.31036 131.508 6.31035 131.508 6.18415V4.79586C131.508 4.66965 131.508 4.66965 131.381 4.66965H129.867C129.741 4.66965 129.741 4.66965 129.741 4.79586V6.18415C129.741 6.31035 129.741 6.31036 129.867 6.31036Z" fill="#2D3955"/>
<path d="M147.788 15.5235H146.274C146.147 15.5235 146.147 15.5235 146.147 15.6497V17.038C146.147 17.1642 146.147 17.1641 146.274 17.1641H147.788C147.914 17.1641 147.914 17.1642 147.914 17.038V15.6497C148.041 15.5235 147.914 15.5235 147.788 15.5235Z" fill="#2D3955"/>
<path d="M148.04 7.82484H146.652C146.526 7.82484 146.526 7.82485 146.526 7.95105V11.8635C146.526 12.1159 146.526 12.3683 146.4 12.4945C146.274 12.6207 146.147 12.6207 145.895 12.6207H145.138H143.371H142.361V10.8538C142.361 10.2228 142.235 9.71796 142.109 9.33934C141.982 8.96072 141.73 8.58207 141.478 8.32966C141.225 8.07725 140.847 7.82483 140.468 7.69862C140.089 7.57242 139.711 7.57245 139.206 7.57245C138.827 7.57245 138.323 7.69863 137.944 7.82484C137.565 7.95105 137.187 8.20346 136.934 8.45587C136.682 8.70829 136.429 9.0869 136.303 9.59173C136.177 10.0966 136.051 10.6014 136.051 11.2324C136.051 11.8635 136.177 12.3683 136.303 12.7469C136.429 13.1255 136.682 13.5042 136.934 13.7566C137.187 14.009 137.565 14.1352 137.818 14.2614C138.196 14.3876 138.575 14.3876 139.08 14.3876H140.594C140.594 14.7662 140.594 15.0187 140.468 15.1449C140.468 15.3973 140.342 15.5235 140.216 15.6497C140.089 15.7759 139.963 15.9021 139.837 15.9021C139.711 15.9021 139.458 16.0283 139.206 16.0283H137.439C137.313 16.0283 137.313 16.0283 137.313 16.1545V17.4166C137.313 17.5428 137.313 17.5428 137.439 17.5428H139.458C140.342 17.5428 141.099 17.2904 141.604 16.9118C142.109 16.5331 142.361 15.7759 142.361 14.7662V14.2614H143.371H145.138H146.526C147.157 14.2614 147.662 14.1352 147.914 13.7566C148.167 13.5042 148.293 12.9993 148.293 12.2421V7.95105C148.167 7.95105 148.167 7.82484 148.04 7.82484ZM140.342 12.7469H138.954C138.449 12.7469 138.07 12.6207 137.818 12.3683C137.565 12.1159 137.439 11.7373 137.439 11.1062C137.439 10.4752 137.565 10.0966 137.818 9.71794C138.07 9.33932 138.449 9.21312 138.954 9.21312C139.458 9.21312 139.837 9.33932 140.089 9.71794C140.342 9.97036 140.468 10.4752 140.468 11.1062V12.7469H140.342Z" fill="#2D3955"/>
<path d="M150.439 3.78629C150.313 3.78629 150.312 3.78625 150.312 3.91246V14.009C150.312 14.1352 150.313 14.1352 150.439 14.1352H151.827C151.953 14.1352 151.953 14.1352 151.953 14.009V3.91246C151.953 3.78625 151.953 3.78629 151.827 3.78629H150.439Z" fill="#2D3955"/>
<path d="M149.429 3.02902H152.71C152.71 3.02902 152.836 3.02901 152.836 2.9028V2.39798C152.836 2.27178 152.836 2.27177 152.71 2.27177H151.196C151.069 2.14556 150.943 2.14558 150.817 1.89316C150.691 1.76696 150.691 1.51451 150.691 1.38831C150.691 1.13589 150.817 1.00969 150.943 0.883486C151.069 0.757279 151.322 0.631095 151.448 0.631095C151.574 0.631095 151.7 0.631065 151.827 0.757272C151.953 0.883478 152.079 0.883494 152.205 1.0097H152.331L152.71 0.631095V0.504881C152.584 0.378674 152.458 0.252444 152.205 0.126237C151.953 3.0221e-05 151.7 6.10352e-05 151.448 6.10352e-05C151.196 6.10352e-05 150.943 3.0221e-05 150.691 0.126237C150.438 0.252444 150.312 0.378674 150.186 0.504881C150.06 0.631088 149.933 0.757287 149.933 1.0097C149.933 1.13591 149.807 1.38831 149.807 1.51452C149.807 1.64073 149.807 1.89313 149.933 2.01934C149.933 2.14555 150.06 2.27178 150.06 2.39798H149.555C149.555 2.39798 149.429 2.39799 149.429 2.5242V3.02902C149.302 3.02902 149.302 3.02902 149.429 3.02902Z" fill="#2D3955"/>
<path d="M157.506 6.31036H159.021C159.147 6.31036 159.147 6.31035 159.147 6.18415V4.79586C159.147 4.66965 159.147 4.66965 159.021 4.66965H157.506C157.38 4.66965 157.38 4.66965 157.38 4.79586V6.18415C157.38 6.31035 157.38 6.31036 157.506 6.31036Z" fill="#2D3955"/>
<path d="M169.117 12.8732C169.243 12.4945 169.243 12.1159 169.243 11.6111V10.7277C169.243 10.0966 169.117 9.59179 168.991 9.21317C168.865 8.83455 168.612 8.58212 168.234 8.3297C167.981 8.07729 167.477 7.9511 167.098 7.9511C166.593 7.82489 166.214 7.82488 165.583 7.82488L168.108 4.92214C168.108 4.79593 168.108 4.79592 168.108 4.66971L167.098 3.78629C166.972 3.78629 166.972 3.78629 166.846 3.78629L163.564 7.69867L163.438 7.82488C163.438 7.82488 163.312 7.95111 163.312 8.07731V9.08695C163.312 9.21316 163.312 9.21317 163.438 9.21317H165.962C166.467 9.21317 166.845 9.33936 167.098 9.59177C167.35 9.84419 167.477 10.0966 167.477 10.6015V11.4849C167.477 11.7373 167.477 11.8635 167.477 12.1159C167.477 12.2421 167.35 12.3683 167.35 12.4946C167.224 12.6208 167.098 12.6207 166.972 12.7469C166.845 12.7469 166.593 12.7469 166.341 12.7469H162.554H160.661H160.409C160.03 12.7469 159.652 12.6208 159.525 12.4946C159.273 12.3683 159.147 12.1159 159.147 11.7373V7.9511C159.147 7.82489 159.147 7.82488 159.021 7.82488H157.506C157.38 7.82488 157.38 7.82489 157.38 7.9511V13.378C157.38 13.7566 157.38 14.009 157.38 14.3877C157.38 14.6401 157.38 14.8925 157.254 15.1449C157.128 15.3973 157.001 15.5235 156.875 15.6497C156.749 15.7759 156.497 15.7759 156.244 15.7759H155.866C155.739 15.7759 155.739 15.7759 155.739 15.9021V17.1642C155.739 17.2904 155.739 17.2904 155.866 17.2904H156.37C156.875 17.2904 157.254 17.1642 157.632 17.038C158.011 16.9118 158.263 16.6594 158.516 16.407C158.768 16.1546 158.894 15.7759 159.021 15.3973C159.147 15.0187 159.147 14.5139 159.147 13.8828V13.6304C159.273 13.8828 159.525 14.009 159.778 14.009C160.03 14.009 160.283 14.1352 160.661 14.1352H162.554H167.098C167.477 14.1352 167.855 14.1352 168.108 14.009C168.36 13.8828 168.612 13.7566 168.865 13.6304C168.865 13.5042 168.991 13.2518 169.117 12.8732Z" fill="#2D3955"/>
<path d="M177.321 13.3779C177.573 13.7566 177.952 13.8828 178.33 14.009C178.709 14.1352 179.214 14.2614 179.719 14.2614C180.223 14.2614 180.602 14.2614 180.981 14.1352C181.359 14.009 181.738 13.7566 181.99 13.5041C182.243 13.2517 182.495 12.8731 182.621 12.4945C182.748 12.1159 182.874 11.611 182.874 10.98C182.874 10.349 182.748 9.84417 182.621 9.33934C182.495 8.96072 182.243 8.58207 181.99 8.32966C181.738 8.07725 181.359 7.82483 180.981 7.69862C180.602 7.57242 180.223 7.57245 179.719 7.57245C179.214 7.57245 178.835 7.57242 178.457 7.69862C178.078 7.82483 177.699 7.95107 177.447 8.20348C177.195 8.4559 176.942 8.8345 176.816 9.21312C176.69 9.59174 176.563 10.0966 176.563 10.7276C176.563 10.8538 176.563 10.8538 176.563 10.98C176.563 11.1062 176.563 11.1062 176.563 11.2324C176.563 11.4849 176.564 11.7373 176.437 11.8635C176.437 11.9897 176.311 12.2421 176.185 12.2421C176.059 12.3683 175.932 12.3683 175.932 12.4945C175.806 12.4945 175.68 12.6207 175.554 12.6207H174.923H174.67C174.292 12.6207 173.913 12.4945 173.787 12.3683C173.535 12.2421 173.408 11.9897 173.408 11.611V7.82484C173.408 7.69863 173.408 7.69862 173.282 7.69862H171.894C171.768 7.69862 171.768 7.69863 171.768 7.82484V13.2518C171.768 13.6304 171.768 13.8828 171.768 14.2614C171.768 14.5138 171.768 14.7662 171.641 15.0186C171.515 15.2711 171.389 15.3973 171.263 15.5235C171.137 15.6497 170.884 15.6497 170.632 15.6497H170.253C170.127 15.6497 170.127 15.6497 170.127 15.7759V17.038C170.127 17.1642 170.127 17.1641 170.253 17.1641H170.884C171.389 17.1641 171.768 17.038 172.146 16.9118C172.525 16.7855 172.777 16.5331 173.03 16.2807C173.282 16.0283 173.408 15.6497 173.535 15.271C173.661 14.8924 173.661 14.3876 173.661 13.7566V13.5041C173.787 13.7566 174.039 13.8828 174.292 13.8828C174.544 13.8828 174.797 14.009 175.175 14.009H175.68C175.806 14.009 175.932 14.009 176.185 14.009C176.311 14.009 176.564 14.009 176.69 13.8828C176.816 13.8828 176.942 13.7566 177.195 13.6304C177.447 13.5042 177.321 13.6303 177.321 13.3779ZM178.709 9.59173C178.961 9.21311 179.34 9.08691 179.845 9.08691C180.855 9.08691 181.233 9.71794 181.233 10.98C181.233 11.611 181.107 12.1159 180.855 12.3683C180.602 12.6207 180.223 12.7469 179.719 12.7469C179.214 12.7469 178.835 12.6207 178.583 12.3683C178.33 12.1159 178.204 11.611 178.204 10.98C178.33 10.349 178.457 9.84414 178.709 9.59173Z" fill="#2D3955"/>
<path d="M20.0669 6.10352e-05C24.3579 6.10352e-05 27.8917 3.53383 27.8917 7.82486V15.9021C23.6007 15.9021 20.0669 12.3683 20.0669 8.07729V6.10352e-05Z" fill="#2D3955"/>
<path d="M20.0669 32.0566C24.3579 32.0566 27.8917 35.5904 27.8917 39.8814V47.9587C23.6007 47.9587 20.0669 44.4249 20.0669 40.1339V32.0566Z" fill="#2D3955"/>
<path d="M0 27.8917C0 23.6007 3.53377 20.0669 7.8248 20.0669H15.902C15.902 24.358 12.3683 27.8917 8.07723 27.8917H0Z" fill="#D4AC39"/>
<path d="M32.0566 27.8917C32.0566 23.6007 35.5904 20.0669 39.8814 20.0669H47.9587C47.9587 24.358 44.4249 27.8917 40.1339 27.8917H32.0566Z" fill="#D4AC39"/>
<path d="M9.71801 43.6676C6.68905 40.6387 6.68905 35.7166 9.71801 32.6876L15.3973 27.0083C18.4263 30.0373 18.4263 34.9593 15.3973 37.9883L9.71801 43.6676Z" fill="#709936"/>
<path d="M32.4351 21.0765C29.4061 18.0476 29.4061 13.1255 32.4351 10.0965L38.1144 4.41724C41.1433 7.4462 41.1433 12.3682 38.1144 15.3972L32.4351 21.0765Z" fill="#709936"/>
<path d="M43.6676 38.2407C40.6386 41.2697 35.7166 41.2697 32.6876 38.2407L27.0083 32.5614C30.0373 29.5324 34.9593 29.5324 37.9883 32.5614L43.6676 38.2407Z" fill="#288AB5"/>
<path d="M20.9503 15.5235C17.9213 18.5524 12.9993 18.5524 9.97033 15.5235L4.29102 9.84417C7.31998 6.81521 12.242 6.81521 15.271 9.84417L20.9503 15.5235Z" fill="#288AB5"/>
</svg>
