<svg width="76" height="75" viewBox="0 0 76 75" fill="none" xmlns="http://www.w3.org/2000/svg">
<path d="M3.4187 42.0284V25.8506H10.6737" stroke="#F5F6F6" stroke-width="1.5" stroke-miterlimit="10" stroke-linecap="round" stroke-linejoin="round"/>
<path d="M72.299 42.0284V22.0146L62.9592 24.433" stroke="#F5F6F6" stroke-width="1.5" stroke-miterlimit="10" stroke-linecap="round" stroke-linejoin="round"/>
<path d="M62.9595 42.5286V8.42188L47.9492 12.0911" stroke="#F5F6F6" stroke-width="1.5" stroke-miterlimit="10" stroke-linecap="round" stroke-linejoin="round"/>
<path d="M47.6987 42.5278V3.91797H28.0186V42.5278" stroke="#F5F6F6" stroke-width="1.5" stroke-miterlimit="10" stroke-linecap="round" stroke-linejoin="round"/>
<path d="M10.6738 42.5286V20.3467H27.6855" stroke="#F5F6F6" stroke-width="1.5" stroke-miterlimit="10" stroke-linecap="round" stroke-linejoin="round"/>
<path d="M24.6004 19.4296V16.2607H14.8438V19.9299" stroke="#F5F6F6" stroke-width="1.5" stroke-miterlimit="10" stroke-linecap="round" stroke-linejoin="round"/>
<path d="M44.5304 3.25172V0.75H31.5215V3.66867" stroke="#F5F6F6" stroke-width="1.5" stroke-miterlimit="10" stroke-linecap="round" stroke-linejoin="round"/>
<path d="M53.5361 14.0928V35.8577" stroke="#F5F6F6" stroke-width="1.5" stroke-miterlimit="10" stroke-linecap="round" stroke-linejoin="round"/>
<path d="M57.373 16.4277V37.1086" stroke="#F5F6F6" stroke-width="1.5" stroke-miterlimit="10" stroke-linecap="round" stroke-linejoin="round"/>
<path d="M68.2139 27.3516V38.9429" stroke="#F5F6F6" stroke-width="1.5" stroke-miterlimit="10" stroke-linecap="round" stroke-linejoin="round"/>
<path d="M14.4268 31.8545H24.6004" stroke="#F5F6F6" stroke-width="1.5" stroke-miterlimit="10" stroke-linecap="round" stroke-linejoin="round"/>
<path d="M14.4268 27.7686H24.6004" stroke="#F5F6F6" stroke-width="1.5" stroke-miterlimit="10" stroke-linecap="round" stroke-linejoin="round"/>
<path d="M14.4268 23.6826H24.6004" stroke="#F5F6F6" stroke-width="1.5" stroke-miterlimit="10" stroke-linecap="round" stroke-linejoin="round"/>
<path d="M22.2649 42.5281V36.6907C22.2649 36.1904 21.848 35.7734 21.3476 35.7734H17.595C17.0947 35.7734 16.6777 36.1904 16.6777 36.6907V42.4447" stroke="#F5F6F6" stroke-width="1.5" stroke-miterlimit="10" stroke-linecap="round" stroke-linejoin="round"/>
<path d="M40.9446 42.529V36.6917C40.9446 36.1914 40.5276 35.7744 40.0273 35.7744H36.2747C35.7744 35.7744 35.3574 36.1914 35.3574 36.6917V42.4457" stroke="#F5F6F6" stroke-width="1.5" stroke-miterlimit="10" stroke-linecap="round" stroke-linejoin="round"/>
<path fill-rule="evenodd" clip-rule="evenodd" d="M36.0246 31.9378H32.6056C32.272 31.9378 31.9385 31.6877 31.9385 31.2707V27.8517C31.9385 27.5181 32.1887 27.1846 32.6056 27.1846H36.0246C36.3582 27.1846 36.6917 27.4347 36.6917 27.8517V31.2707C36.6917 31.6877 36.3582 31.9378 36.0246 31.9378Z" stroke="#F5F6F6" stroke-width="1.5" stroke-miterlimit="10" stroke-linecap="round" stroke-linejoin="round"/>
<path fill-rule="evenodd" clip-rule="evenodd" d="M43.6125 31.9388H40.1935C39.8599 31.9388 39.5264 31.6886 39.5264 31.2717V27.8527C39.5264 27.5191 39.7765 27.1855 40.1935 27.1855H43.6125C43.9461 27.1855 44.2796 27.4357 44.2796 27.8527V31.2717C44.2796 31.6886 44.0295 31.9388 43.6125 31.9388Z" stroke="#F5F6F6" stroke-width="1.5" stroke-miterlimit="10" stroke-linecap="round" stroke-linejoin="round"/>
<path fill-rule="evenodd" clip-rule="evenodd" d="M36.0246 24.3499H32.6056C32.272 24.3499 31.9385 24.0998 31.9385 23.6828V20.2638C31.9385 19.9302 32.1887 19.5967 32.6056 19.5967H36.0246C36.3582 19.5967 36.6917 19.8469 36.6917 20.2638V23.7662C36.6917 24.0998 36.3582 24.3499 36.0246 24.3499Z" stroke="#F5F6F6" stroke-width="1.5" stroke-miterlimit="10" stroke-linecap="round" stroke-linejoin="round"/>
<path fill-rule="evenodd" clip-rule="evenodd" d="M43.6125 24.349H40.1935C39.8599 24.349 39.5264 24.0988 39.5264 23.6818V20.2628C39.5264 19.9293 39.7765 19.5957 40.1935 19.5957H43.6125C43.9461 19.5957 44.2796 19.8459 44.2796 20.2628V23.7652C44.2796 24.0988 44.0295 24.349 43.6125 24.349Z" stroke="#F5F6F6" stroke-width="1.5" stroke-miterlimit="10" stroke-linecap="round" stroke-linejoin="round"/>
<path fill-rule="evenodd" clip-rule="evenodd" d="M36.0246 16.7611H32.6056C32.272 16.7611 31.9385 16.5109 31.9385 16.094V12.6749C31.9385 12.3414 32.1887 12.0078 32.6056 12.0078H36.0246C36.3582 12.0078 36.6917 12.258 36.6917 12.6749V16.094C36.6917 16.5109 36.3582 16.7611 36.0246 16.7611Z" stroke="#F5F6F6" stroke-width="1.5" stroke-miterlimit="10" stroke-linecap="round" stroke-linejoin="round"/>
<path fill-rule="evenodd" clip-rule="evenodd" d="M41.8619 9.83919H34.4402C34.1066 9.83919 33.8564 9.58901 33.8564 9.25545V7.58764C33.8564 7.25408 34.1066 7.00391 34.4402 7.00391H41.8619C42.1955 7.00391 42.4457 7.25408 42.4457 7.58764V9.25545C42.4457 9.58901 42.1955 9.83919 41.8619 9.83919Z" stroke="#F5F6F6" stroke-width="1.5" stroke-miterlimit="10" stroke-linecap="round" stroke-linejoin="round"/>
<path fill-rule="evenodd" clip-rule="evenodd" d="M43.6125 16.7611H40.1935C39.8599 16.7611 39.5264 16.5109 39.5264 16.094V12.6749C39.5264 12.3414 39.7765 12.0078 40.1935 12.0078H43.6125C43.9461 12.0078 44.2796 12.258 44.2796 12.6749V16.094C44.2796 16.5109 44.0295 16.7611 43.6125 16.7611Z" stroke="#F5F6F6" stroke-width="1.5" stroke-miterlimit="10" stroke-linecap="round" stroke-linejoin="round"/>
<path fill-rule="evenodd" clip-rule="evenodd" d="M72.2157 47.2822H3.08494C1.75069 47.2822 0.75 46.1981 0.75 44.9472C0.75 43.613 1.83408 42.6123 3.08494 42.6123H72.2157C73.55 42.6123 74.5507 43.6964 74.5507 44.9472C74.5507 46.2815 73.55 47.2822 72.2157 47.2822Z" stroke="#F5F6F6" stroke-width="1.5" stroke-miterlimit="10" stroke-linecap="round" stroke-linejoin="round"/>
<path d="M23.432 47.2816C23.7656 54.8702 30.0199 60.8743 37.6084 60.8743C45.197 60.8743 51.5347 54.8702 51.7848 47.2816M64.2934 47.2816V50.2837C64.2934 51.4512 63.6263 52.702 62.4588 52.702H59.2066C58.7063 54.4532 58.0391 56.121 57.1218 57.7055L59.4568 60.0404C60.2907 60.8743 59.8737 62.2085 59.0398 63.0425L53.953 68.0459C53.1191 68.8798 51.7014 69.2134 50.9509 68.4628L48.616 66.1279C47.0316 67.0452 45.3638 67.7123 43.6126 68.2127V71.4649C43.6126 72.6324 42.3617 73.2995 41.1942 73.2995H34.0226C32.8552 73.2995 31.6043 72.6324 31.6043 71.4649V68.2127C29.8531 67.7123 28.1853 67.0452 26.6009 66.1279L24.2659 68.4628C23.432 69.2967 22.0144 68.8798 21.2639 68.0459L16.2604 62.9591C15.4265 62.1252 15.093 60.7909 15.8435 59.957L18.1784 57.6221C17.2611 56.0376 16.594 54.3698 16.0937 52.6186H12.8414C11.674 52.6186 11.0068 51.3678 11.0068 50.2003V47.1982" stroke="#F5F6F6" stroke-width="1.5" stroke-miterlimit="10"/>
</svg>
